<?xml version="1.0" standalone="no"?>
<!DOCTYPE svg PUBLIC "-//W3C//DTD SVG 20010904//EN"
 "http://www.w3.org/TR/2001/REC-SVG-20010904/DTD/svg10.dtd">
<svg version="1.0" xmlns="http://www.w3.org/2000/svg"
 width="720.000000pt" height="715.000000pt" viewBox="0 0 720.000000 715.000000"
 preserveAspectRatio="xMidYMid meet">
<metadata>
Created by potrace 1.12, written by Peter Selinger 2001-2015
</metadata>
<g transform="translate(0.000000,715.000000) scale(0.100000,-0.100000)"
fill="#000000" stroke="none">
<path d="M3265 6360 c-10 -11 -24 -20 -30 -20 -14 0 -85 -75 -85 -90 0 -16 9
-12 61 26 44 32 87 89 76 100 -2 2 -12 -5 -22 -16z"/>
<path d="M3225 6360 c-3 -5 -1 -10 4 -10 6 0 11 5 11 10 0 6 -2 10 -4 10 -3 0
-8 -4 -11 -10z"/>
<path d="M6040 6340 c0 -5 -16 -10 -37 -10 -20 0 -34 -2 -32 -4 9 -9 225 -14
244 -6 14 6 -3 9 -52 9 -39 1 -75 6 -78 11 -3 6 -15 10 -26 10 -10 0 -19 -4
-19 -10z"/>
<path d="M4774 6284 c-16 -7 -49 -31 -72 -54 -32 -32 -46 -40 -62 -35 -21 7
-21 6 1 -19 12 -14 32 -26 44 -26 40 0 85 21 85 39 0 10 9 26 20 36 11 10 17
22 14 27 -4 6 -10 6 -17 -1 -6 -6 -15 -11 -21 -11 -5 0 5 11 23 24 37 28 30
39 -15 20z"/>
<path d="M6048 6243 c12 -2 32 -2 45 0 12 2 2 4 -23 4 -25 0 -35 -2 -22 -4z"/>
<path d="M6295 6240 c-3 -5 1 -10 9 -10 9 0 16 5 16 10 0 6 -4 10 -9 10 -6 0
-13 -4 -16 -10z"/>
<path d="M4600 6170 c0 -5 5 -10 10 -10 6 0 10 5 10 10 0 6 -4 10 -10 10 -5 0
-10 -4 -10 -10z"/>
<path d="M4778 6163 c-10 -2 -18 -9 -18 -14 0 -16 -29 -41 -39 -35 -5 3 -14
-1 -21 -9 -7 -8 -21 -15 -32 -15 -13 0 -18 -5 -15 -14 3 -8 -1 -20 -8 -26 -16
-13 -10 -34 6 -25 5 4 9 2 9 -4 0 -5 -4 -13 -10 -16 -5 -3 -10 -1 -10 4 0 6
-5 11 -11 11 -5 0 -7 -4 -4 -10 3 -5 -1 -10 -11 -10 -13 0 -14 -3 -5 -14 6 -7
10 -22 10 -32 -1 -11 -1 -30 -1 -43 2 -20 5 -22 14 -13 7 7 21 12 33 12 12 0
26 5 32 11 7 7 18 3 36 -15 14 -14 33 -26 41 -26 8 0 21 -3 30 -6 12 -5 11 3
-7 37 -18 34 -23 59 -22 109 1 36 5 74 8 85 15 48 19 65 16 64 -2 -1 -12 -3
-21 -6z"/>
<path d="M3634 6149 c-4 -8 -27 -9 -68 -5 l-61 6 40 -15 c52 -19 101 -19 108
0 7 18 -9 30 -19 14z"/>
<path d="M3170 6131 c0 -5 5 -13 10 -16 6 -3 10 -2 10 4 0 5 -4 13 -10 16 -5
3 -10 2 -10 -4z"/>
<path d="M3478 6133 c7 -3 16 -2 19 1 4 3 -2 6 -13 5 -11 0 -14 -3 -6 -6z"/>
<path d="M3770 6130 c0 -5 7 -7 15 -4 8 4 15 8 15 10 0 2 -7 4 -15 4 -8 0 -15
-4 -15 -10z"/>
<path d="M3880 6130 c20 -13 53 -13 45 0 -3 6 -18 10 -33 10 -21 0 -24 -2 -12
-10z"/>
<path d="M4225 6116 c41 -35 63 -41 84 -22 13 12 27 14 51 10 24 -5 31 -4 26
5 -4 6 -12 9 -17 5 -5 -3 -16 0 -24 6 -8 7 -45 14 -82 17 l-68 5 30 -26z"/>
<path d="M6088 6133 c6 -2 18 -2 25 0 6 3 1 5 -13 5 -14 0 -19 -2 -12 -5z"/>
<path d="M6218 6133 c6 -2 18 -2 25 0 6 3 1 5 -13 5 -14 0 -19 -2 -12 -5z"/>
<path d="M3270 6115 c-7 -8 -15 -13 -19 -11 -11 6 -36 -29 -35 -49 3 -38 5
-40 15 -23 5 10 16 15 24 12 8 -4 16 -2 16 2 1 5 3 19 4 31 1 12 5 28 8 37 8
20 3 20 -13 1z"/>
<path d="M5985 6119 c-3 -3 9 -9 26 -13 38 -7 154 -8 147 -1 -8 9 -169 22
-173 14z"/>
<path d="M3805 6100 c3 -5 11 -10 16 -10 6 0 7 5 4 10 -3 6 -11 10 -16 10 -6
0 -7 -4 -4 -10z"/>
<path d="M3051 6084 c0 -11 3 -14 6 -6 3 7 2 16 -1 19 -3 4 -6 -2 -5 -13z"/>
<path d="M2996 6082 c-8 -14 2 -40 31 -78 13 -18 22 -36 21 -40 -2 -5 10 -26
25 -46 l29 -37 -17 -46 c-23 -58 -17 -215 9 -244 9 -10 16 -30 16 -45 0 -15 7
-40 15 -54 19 -36 45 -102 39 -102 -2 0 -13 5 -24 12 -10 7 -21 10 -23 8 -3
-3 -1 -34 4 -70 12 -84 6 -95 -20 -40 l-22 45 4 -49 c3 -27 0 -62 -5 -78 -10
-27 -11 -28 -24 -11 -7 10 -14 14 -15 8 0 -5 -4 1 -8 15 -4 14 -13 25 -21 25
-17 0 -19 -62 -5 -152 5 -33 4 -53 -2 -53 -6 0 -7 -20 -2 -52 13 -90 11 -121
-6 -114 -13 4 -15 -9 -15 -83 0 -49 -5 -113 -12 -142 -15 -74 -16 -121 0 -126
6 -3 12 3 12 12 0 9 4 14 9 11 5 -3 11 12 15 33 3 22 13 46 21 55 8 8 15 24
15 36 0 36 17 13 30 -40 7 -28 17 -53 23 -57 6 -4 8 -1 5 8 -3 8 -13 51 -23
97 -10 46 -21 78 -25 72 -5 -8 -10 -6 -14 6 -5 12 -1 23 9 30 12 9 15 21 10
47 -4 19 -4 44 0 56 5 17 12 19 38 14 18 -3 34 -9 37 -13 3 -4 29 -10 59 -12
34 -3 59 -12 66 -22 7 -9 16 -16 21 -16 5 0 32 -26 61 -57 77 -83 65 -49 -14
44 -24 27 -33 57 -11 35 19 -19 26 -14 20 13 -3 18 0 25 11 25 9 0 18 13 22
31 6 28 8 29 24 15 23 -21 31 -20 31 4 0 11 -4 20 -10 20 -5 0 -10 5 -10 10 0
16 36 12 51 -6 9 -11 26 -15 58 -12 41 3 46 1 49 -19 2 -12 9 -27 17 -33 19
-15 68 -4 90 20 17 19 18 19 46 -1 16 -11 27 -24 25 -28 -3 -4 4 -20 15 -37
25 -38 24 -47 -3 -33 -21 11 -22 11 -9 -5 8 -9 11 -19 8 -23 -8 -8 11 -43 23
-43 6 0 10 9 10 19 0 14 5 18 21 14 18 -5 20 -2 15 37 -4 36 -3 40 9 30 12
-10 15 -10 15 1 0 8 -4 21 -9 29 -15 22 -1 34 15 13 10 -12 13 -13 10 -3 -2 8
-7 40 -10 72 -5 50 -4 56 12 53 9 -2 22 -4 28 -4 12 -1 38 -51 30 -59 -8 -7
13 -42 25 -42 6 0 5 9 -2 22 -9 16 -9 23 0 26 6 2 11 9 11 16 0 12 39 54 41
45 1 -2 2 -19 4 -37 3 -36 16 -54 39 -58 9 -1 12 4 9 13 -4 10 -8 11 -13 3 -5
-8 -9 -4 -13 9 -3 12 -2 19 2 16 13 -7 5 75 -8 88 -9 9 -11 7 -5 -8 4 -11 -11
0 -34 25 -23 25 -41 48 -42 52 0 4 -6 13 -12 20 -24 26 -38 58 -38 88 0 16 4
30 9 30 4 0 4 23 -2 50 -5 28 -14 50 -19 50 -5 0 2 12 16 26 13 15 22 32 20
39 -3 7 11 20 31 29 35 17 38 17 58 -1 14 -12 18 -13 12 -3 -6 11 -5 12 3 5 6
-5 12 -29 13 -53 4 -59 19 -65 19 -8 0 25 5 46 10 46 6 0 10 9 10 20 0 27 41
36 72 16 30 -19 46 -9 18 11 -24 17 -26 33 -4 33 8 0 13 4 10 9 -6 10 37 31
64 31 31 0 24 15 -15 33 -19 9 -35 23 -35 32 0 17 -40 45 -90 62 -52 19 -110
16 -153 -7 -20 -11 -47 -20 -59 -20 l-21 0 22 24 c26 27 95 46 169 46 35 0 58
-7 87 -27 22 -14 42 -29 45 -33 14 -19 52 -15 106 11 32 16 66 29 75 29 28 0
32 29 5 40 -34 12 -134 30 -174 30 -18 0 -40 6 -47 14 -12 12 -11 15 8 20 21
6 20 7 -10 21 -20 8 -39 28 -50 49 -10 21 -24 36 -34 36 -10 0 -21 5 -25 11
-5 8 4 10 30 7 20 -2 36 -1 36 3 0 10 37 18 58 12 10 -2 23 -18 29 -34 7 -18
18 -29 30 -29 11 0 24 -5 31 -12 9 -9 12 -9 12 1 0 9 9 11 33 6 l32 -7 -28 27
c-16 15 -56 41 -89 58 -33 17 -64 39 -69 49 -5 10 -19 18 -31 18 -21 0 -90
-37 -96 -52 -2 -4 -12 -8 -21 -8 -27 0 -33 -12 -13 -26 9 -8 12 -14 5 -14 -6
0 -14 4 -17 8 -3 5 -66 8 -140 7 -75 -1 -133 1 -131 5 3 5 -14 18 -37 30 -22
12 -50 33 -61 46 -19 25 -28 26 -71 8 -14 -5 -17 -4 -12 4 8 14 -12 16 -31 4
-20 -13 6 -42 40 -44 15 -1 27 -8 27 -15 0 -7 5 -13 11 -13 6 0 23 -9 38 -19
14 -10 37 -21 51 -23 23 -4 23 -5 6 -13 -13 -6 -29 -3 -50 9 -34 20 -172 66
-196 66 -12 -1 -11 -3 3 -11 21 -12 13 -29 -14 -29 -37 0 -109 -41 -109 -62 0
-11 -5 -28 -10 -38 -8 -14 -6 -30 5 -56 8 -21 13 -39 10 -42 -9 -9 -76 72 -95
116 -20 43 -37 58 -25 22 3 -11 4 -20 1 -20 -8 0 -69 112 -77 144 -7 26 -8 24
-5 -14 4 -43 4 -44 -9 -20 -7 14 -17 23 -22 21 -4 -2 -18 13 -29 33 -12 21
-24 33 -28 28z m551 -48 c-3 -3 -12 -4 -19 -1 -8 3 -5 6 6 6 11 1 17 -2 13 -5z
m523 -54 c0 -13 -11 -13 -30 0 -12 8 -11 10 8 10 12 0 22 -4 22 -10z m-320
-40 c0 -5 -15 -10 -32 -9 -28 0 -30 2 -13 9 28 12 45 12 45 0z m255 0 c-3 -5
-1 -10 6 -10 7 0 10 -3 6 -6 -9 -9 -28 6 -22 17 4 5 8 9 11 9 3 0 2 -4 -1 -10z
m-588 -191 c2 -8 -1 -21 -7 -29 -14 -22 -34 2 -25 30 7 23 28 22 32 -1z m107
-13 c-12 -39 -24 -41 -24 -3 0 29 3 35 15 31 11 -4 13 -13 9 -28z m290 -18
c-14 -20 -15 -20 -9 -3 4 11 10 29 13 40 5 17 7 18 10 3 2 -10 -4 -28 -14 -40z
m-192 28 c22 -16 12 -29 -13 -15 -15 8 -20 5 -25 -16 -6 -24 -34 -36 -34 -15
0 6 4 10 8 10 5 0 15 11 22 25 15 28 18 29 42 11z m-412 -11 c7 -9 8 -15 2
-15 -5 0 -12 7 -16 15 -3 8 -4 15 -2 15 2 0 9 -7 16 -15z m-46 -17 c24 -35 20
-46 -16 -42 -18 1 -36 3 -40 3 -5 1 -8 9 -8 19 1 15 2 15 15 -2 13 -18 14 -17
10 12 -4 38 16 43 39 10z m236 -38 c10 0 24 10 33 23 14 22 15 21 13 -12 -2
-40 -31 -65 -46 -41 -6 10 -10 11 -10 3 0 -7 -4 -13 -10 -13 -5 0 -7 7 -4 15
3 8 -2 22 -11 32 -17 16 -17 16 -11 -5 4 -12 3 -22 -2 -22 -18 0 -20 25 -3 53
l16 28 9 -30 c5 -19 15 -31 26 -31z m90 43 c0 -22 -17 -49 -25 -41 -8 8 5 58
16 58 5 0 9 -8 9 -17z m188 -15 c-6 -18 -28 -21 -28 -4 0 9 7 16 16 16 9 0 14
-5 12 -12z m-448 -19 c0 -6 -4 -7 -10 -4 -5 3 -10 11 -10 16 0 6 5 7 10 4 6
-3 10 -11 10 -16z m480 -13 c0 -21 -20 -30 -33 -17 -9 9 -8 14 3 21 21 14 30
12 30 -4z m136 -11 c14 -13 12 -18 -13 -39 -32 -28 -57 -18 -30 12 9 10 17 24
17 30 0 16 8 15 26 -3z m-516 -20 c0 -8 -4 -15 -10 -15 -5 0 -10 7 -10 15 0 8
5 15 10 15 6 0 10 -7 10 -15z m175 -15 c3 -6 -4 -10 -17 -10 -18 0 -20 2 -8
10 19 12 18 12 25 0z m-255 -20 c0 -5 -2 -10 -4 -10 -3 0 -8 5 -11 10 -3 6 -1
10 4 10 6 0 11 -4 11 -10z m94 -6 c12 -4 14 -15 11 -42 l-6 -37 21 24 c24 28
25 24 4 -18 -9 -17 -13 -38 -10 -46 3 -8 -3 -17 -15 -20 -10 -4 -17 -11 -13
-16 3 -5 2 -23 -1 -40 -6 -25 -9 -28 -22 -17 -8 7 -19 22 -23 33 -10 26 -1 77
12 69 6 -4 7 2 3 16 -4 14 -3 25 5 30 9 6 9 12 -2 29 -11 18 -11 23 2 31 18
12 15 11 34 4z m386 -28 c0 -8 -5 -18 -10 -21 -17 -11 -40 3 -34 20 8 19 44
20 44 1z m247 -22 c-3 -3 -12 -4 -19 -1 -8 3 -5 6 6 6 11 1 17 -2 13 -5z
m-817 -35 c0 -11 -4 -17 -10 -14 -5 3 -10 13 -10 21 0 8 5 14 10 14 6 0 10 -9
10 -21z m570 13 c0 -17 -32 -52 -48 -52 -22 0 -62 28 -62 43 0 8 3 8 12 -1 13
-13 29 -16 27 -4 -1 4 -1 10 0 15 1 9 71 9 71 -1z m260 -12 c12 -8 12 -10 -5
-10 -11 0 -27 5 -35 10 -12 8 -12 10 5 10 11 0 27 -5 35 -10z m-402 -41 c7
-11 18 -19 24 -19 6 0 3 9 -7 20 -10 11 -16 22 -13 25 3 3 13 -4 23 -15 10
-11 24 -20 32 -20 7 0 13 -11 13 -25 0 -14 -4 -25 -8 -25 -21 0 -72 33 -72 46
0 8 -4 14 -8 14 -5 0 -17 7 -28 16 -18 14 -18 15 6 8 14 -4 31 -15 38 -25z
m-404 6 c-4 -8 -8 -15 -10 -15 -2 0 -4 7 -4 15 0 8 4 15 10 15 5 0 7 -7 4 -15z
m219 -7 c2 -7 0 -21 -5 -32 -6 -10 -7 -33 -4 -50 l6 -31 -20 25 c-23 29 -25
52 -8 80 15 23 24 25 31 8z m-199 -29 c-3 -5 -10 -7 -15 -3 -5 3 -7 10 -3 15
3 5 10 7 15 3 5 -3 7 -10 3 -15z m365 -22 c9 -12 7 -16 -11 -20 -27 -7 -28 -7
-34 27 -4 24 -2 26 14 17 10 -5 24 -16 31 -24z m-69 -7 c0 -5 -4 -10 -10 -10
-5 0 -10 5 -10 10 0 6 5 10 10 10 6 0 10 -4 10 -10z m-124 -89 c14 -6 22 -16
19 -21 -20 -32 -55 11 -53 63 1 42 1 42 5 6 3 -27 11 -39 29 -48z m131 47 c-3
-8 -6 -5 -6 6 -1 11 2 17 5 13 3 -3 4 -12 1 -19z m-37 -61 c0 -10 -4 -16 -9
-13 -5 3 -8 17 -8 32 0 18 2 22 8 13 5 -8 9 -22 9 -32z m-150 14 c14 -27 13
-30 -10 -24 -11 3 -20 14 -20 24 0 25 16 24 30 0z m260 -63 c0 -10 -4 -18 -9
-18 -13 0 -21 27 -14 46 5 13 7 13 14 2 5 -7 9 -21 9 -30z m-137 17 c-3 -9 -8
-14 -10 -11 -3 3 -2 9 2 15 9 16 15 13 8 -4z m-93 -79 c0 -6 -7 -2 -15 8 -8
11 -15 25 -15 30 0 6 7 2 15 -8 8 -11 15 -25 15 -30z m160 -2 c0 -8 -4 -14
-10 -14 -5 0 -10 9 -10 21 0 11 5 17 10 14 6 -3 10 -13 10 -21z m-60 -20 c0
-8 -4 -12 -10 -9 -5 3 -10 10 -10 16 0 5 5 9 10 9 6 0 10 -7 10 -16z m30 6 c0
-5 -4 -10 -10 -10 -5 0 -10 5 -10 10 0 6 5 10 10 10 6 0 10 -4 10 -10z m96
-68 c-12 -11 -18 7 -10 30 l8 23 4 -23 c2 -13 1 -26 -2 -30z m-169 -5 c-6 -19
-22 -6 -25 20 -2 27 -2 27 13 8 8 -10 14 -23 12 -28z m103 -11 c-14 -14 -24 0
-16 21 6 15 8 15 16 3 6 -9 5 -19 0 -24z m-30 8 c0 -10 -17 -11 -52 -5 -22 3
-4 17 22 16 17 0 30 -5 30 -11z m-85 -52 c-9 -9 -35 8 -35 24 0 16 2 16 20 -1
11 -10 18 -20 15 -23z m181 5 c-11 -7 -28 -20 -38 -29 -10 -10 -30 -17 -45
-17 l-28 1 30 7 30 7 -39 8 c-21 4 -35 10 -32 14 6 5 64 15 121 19 19 1 19 1
1 -10z m-136 -7 c0 -5 -4 -10 -10 -10 -5 0 -10 5 -10 10 0 6 5 10 10 10 6 0
10 -4 10 -10z m-413 -252 c-3 -8 -6 -5 -6 6 -1 11 2 17 5 13 3 -3 4 -12 1 -19z"/>
<path d="M5004 6045 c-21 -23 -38 -85 -24 -85 4 0 13 -19 20 -42 16 -56 48
-101 67 -94 8 3 12 2 9 -3 -3 -5 2 -15 11 -22 14 -12 16 -12 9 1 -5 8 4 1 20
-17 30 -32 94 -77 81 -56 -4 6 -2 13 5 15 9 3 6 12 -8 31 -15 18 -20 38 -19
64 2 21 -2 44 -7 50 -6 7 -7 21 -3 30 5 10 7 23 6 30 -1 6 4 15 10 19 8 5 9 3
4 -6 -5 -9 -4 -11 3 -6 24 14 13 33 -15 28 -37 -7 -72 -41 -74 -72 0 -23 -1
-24 -10 -5 -8 18 -9 17 -5 -5 2 -14 7 -34 11 -45 5 -16 5 -17 -4 -5 -8 11 -13
12 -19 3 -6 -9 -11 -7 -20 7 -10 16 -10 20 0 18 9 -2 12 9 10 37 -2 31 0 37 8
25 9 -12 10 -11 5 7 -4 13 1 33 12 50 16 26 16 27 0 14 -15 -12 -17 -11 -17 5
0 17 -1 17 -15 -2 -15 -19 -15 -19 -13 1 4 60 -6 68 -38 30z m33 -107 c-3 -8
-6 -5 -6 6 -1 11 2 17 5 13 3 -3 4 -12 1 -19z"/>
<path d="M3640 6030 c13 -9 119 -15 109 -6 -2 2 -31 6 -64 10 -41 4 -55 3 -45
-4z"/>
<path d="M3248 6017 c-5 -10 -8 -33 -8 -50 1 -27 2 -29 11 -14 6 9 9 32 7 50
-2 25 -5 28 -10 14z"/>
<path d="M3890 6020 c-12 -8 -9 -10 12 -10 15 0 30 5 33 10 8 13 -25 13 -45 0z"/>
<path d="M4903 5955 c0 -22 2 -30 4 -17 2 12 2 30 0 40 -3 9 -5 -1 -4 -23z"/>
<path d="M4468 5963 c7 -3 16 -2 19 1 4 3 -2 6 -13 5 -11 0 -14 -3 -6 -6z"/>
<path d="M5244 5953 c-3 -10 -10 -26 -15 -36 -11 -21 1 -49 17 -39 14 9 25 92
13 92 -5 0 -12 -8 -15 -17z"/>
<path d="M5430 5955 c-20 -24 -6 -28 15 -5 10 11 13 20 8 20 -6 0 -16 -7 -23
-15z"/>
<path d="M4398 5948 c-33 -11 -36 -24 -9 -33 45 -14 97 23 55 39 -9 3 -16 6
-17 5 -1 0 -14 -5 -29 -11z"/>
<path d="M4840 5938 c0 -9 5 -20 10 -23 13 -8 13 5 0 25 -8 13 -10 13 -10 -2z"/>
<path d="M4976 5920 c3 -19 10 -39 16 -45 11 -12 0 42 -14 65 -6 10 -7 3 -2
-20z"/>
<path d="M4097 5933 c-14 -14 -6 -23 21 -22 23 2 24 2 4 6 -12 2 -20 9 -17 14
7 10 1 12 -8 2z"/>
<path d="M5625 5909 l-60 -30 60 7 c33 4 71 14 84 22 22 15 22 16 5 23 -26 10
-21 11 -89 -22z m70 11 c-3 -5 -11 -10 -16 -10 -6 0 -7 5 -4 10 3 6 11 10 16
10 6 0 7 -4 4 -10z"/>
<path d="M4575 5910 c-3 -5 -15 -10 -26 -10 -11 0 -18 -4 -14 -9 3 -6 -10 -8
-32 -5 -21 2 -32 2 -25 -2 6 -3 10 -10 7 -14 -6 -9 86 -3 115 7 12 4 11 7 -5
13 -18 8 -18 9 -2 9 18 1 15 21 -3 21 -5 0 -12 -4 -15 -10z"/>
<path d="M4940 5898 c0 -9 5 -20 10 -23 13 -8 13 5 0 25 -8 13 -10 13 -10 -2z"/>
<path d="M5540 5890 c0 -5 5 -10 10 -10 6 0 10 5 10 10 0 6 -4 10 -10 10 -5 0
-10 -4 -10 -10z"/>
<path d="M5197 5875 c-4 -8 -2 -17 3 -20 6 -4 10 3 10 14 0 25 -6 27 -13 6z"/>
<path d="M5351 5867 c-1 -33 37 -127 51 -127 10 0 47 -40 48 -52 0 -3 -20 -5
-45 -3 l-45 3 24 -19 c13 -11 31 -19 39 -19 29 0 61 -17 219 -119 56 -37 57
-38 38 -57 -18 -18 -34 -45 -91 -148 -16 -30 -20 -50 -16 -81 6 -43 -4 -66
-49 -114 -26 -26 -34 -62 -27 -108 4 -26 2 -33 -11 -33 -12 0 -16 -10 -16 -42
0 -39 5 -46 92 -130 51 -49 110 -102 133 -118 78 -56 160 -103 185 -106 74 -9
198 -11 243 -3 107 17 172 32 183 40 6 5 41 13 78 18 38 5 69 11 70 13 51 67
90 125 88 131 -1 4 2 7 7 7 6 0 16 11 23 24 7 13 32 55 56 93 41 68 42 70 32
122 -5 29 -7 72 -3 94 6 40 6 41 -11 24 -15 -15 -17 -27 -11 -72 7 -58 0 -99
-16 -90 -5 4 -9 1 -9 -5 0 -7 -7 -9 -16 -6 -8 3 -12 2 -9 -4 11 -17 -25 -69
-47 -70 -15 0 -8 50 12 82 11 18 20 45 20 60 0 14 4 28 10 30 5 2 12 22 16 46
5 35 4 42 -10 42 -9 0 -16 5 -16 10 0 6 5 10 11 10 5 0 7 5 4 10 -4 6 -11 8
-16 5 -5 -4 -14 6 -20 22 -11 29 -57 83 -71 83 -12 0 -10 -13 9 -56 9 -22 18
-54 20 -71 3 -27 0 -33 -16 -33 -11 0 -26 -3 -35 -6 -13 -5 -16 1 -16 26 0 20
-11 46 -28 69 -16 20 -36 50 -44 66 -39 77 -45 84 -55 74 -8 -8 -16 -4 -28 15
-18 26 -45 35 -45 15 0 -7 -11 0 -25 15 -14 15 -25 36 -25 46 0 21 -32 44 -45
32 -5 -4 -5 -2 -2 4 4 7 -3 14 -15 17 -12 4 -19 9 -16 12 3 4 16 2 27 -5 12
-6 21 -7 21 -2 0 5 -11 15 -25 22 -34 18 -31 33 5 28 38 -6 38 -2 -1 17 -17 9
-29 18 -26 21 8 8 88 -26 125 -54 40 -31 97 -59 87 -42 -10 17 48 -13 75 -38
24 -23 24 -24 3 -17 -13 3 -23 2 -23 -3 0 -13 72 -50 87 -45 6 2 14 -4 17 -14
9 -25 74 -93 89 -93 6 0 -3 14 -20 30 -37 33 -42 46 -16 35 12 -4 9 3 -10 22
-28 31 -36 49 -14 38 26 -13 -50 48 -95 77 -27 16 -48 34 -48 39 0 5 -14 9
-30 9 -28 0 -88 24 -100 39 -12 17 -69 50 -113 66 -32 12 -44 21 -35 26 24 15
-2 22 -102 27 -83 4 -98 7 -89 18 6 8 32 15 58 15 25 1 36 4 24 6 -13 2 -23 9
-23 14 0 5 -11 9 -25 9 -36 0 -31 16 8 25 25 6 28 9 12 12 -11 3 -25 9 -31 14
-15 12 -113 13 -144 1 -27 -10 -45 1 -45 28 0 11 -11 15 -43 13 -49 -2 -80
-28 -89 -76 -3 -15 -10 -30 -14 -33 -14 -8 -11 11 11 61 l20 46 -23 -3 c-12
-2 -22 -10 -22 -18 0 -8 -8 -28 -16 -45 -9 -16 -20 -44 -23 -62 -7 -30 -8 -31
-27 -15 -10 9 -19 27 -19 40 0 13 -4 21 -9 18 -17 -11 -21 25 -6 60 16 39 4
47 -13 9 -6 -14 -16 -25 -21 -25 -5 0 -12 -16 -15 -35 -4 -20 -11 -33 -16 -30
-10 6 -32 52 -48 100 l-10 30 -1 -28z m255 -156 c1 -31 -2 -38 -13 -34 -9 4
-13 14 -9 27 3 11 6 27 6 34 0 6 3 12 8 12 4 0 8 -18 8 -39z m382 -133 c7 -7
12 -21 12 -32 0 -18 -2 -19 -11 -6 -9 13 -10 13 -6 0 2 -8 9 -16 15 -16 23 -3
24 -4 12 -19 -8 -10 -17 -12 -28 -6 -10 6 -24 5 -34 0 -10 -6 -23 -7 -29 -3
-6 3 -21 -4 -34 -16 -13 -12 -31 -20 -39 -17 -8 3 -22 -3 -32 -14 -21 -23 -52
-24 -83 -3 l-22 16 22 24 c12 13 30 24 40 24 9 0 20 7 23 16 5 13 15 15 45 11
30 -4 38 -1 37 10 0 8 14 20 34 28 46 17 64 17 78 3z m-251 -190 c-3 -8 -6 -5
-6 6 -1 11 2 17 5 13 3 -3 4 -12 1 -19z m520 -20 c-3 -8 -6 -5 -6 6 -1 11 2
17 5 13 3 -3 4 -12 1 -19z m-637 -41 c0 -7 -7 -22 -15 -33 -13 -17 -14 -16 -4
14 11 33 19 41 19 19z m209 -13 c-12 -16 -12 -17 7 -12 17 4 20 2 17 -13 -3
-11 -9 -22 -14 -25 -5 -3 -9 -16 -9 -29 0 -12 -7 -25 -15 -29 -8 -3 -15 -12
-15 -20 0 -9 -13 -29 -30 -46 -16 -17 -30 -36 -31 -43 0 -7 -4 -3 -9 8 -4 11
-4 24 1 30 14 14 11 41 -6 55 -10 8 -14 25 -11 53 4 42 9 47 86 80 40 17 49
14 29 -9z m181 -82 c-8 -3 -20 -9 -26 -14 -8 -5 -14 -3 -18 8 -4 12 -2 15 9
11 8 -4 17 -2 20 4 4 5 11 6 18 2 8 -5 7 -8 -3 -11z m127 -12 c11 0 14 -7 9
-25 -4 -14 -2 -25 3 -25 5 0 7 -9 4 -20 -6 -21 -38 -46 -67 -51 -29 -6 -29
-38 0 -45 17 -4 23 -11 20 -21 -3 -8 -6 -21 -6 -29 0 -9 -4 -13 -9 -9 -16 9
-24 -15 -11 -30 17 -21 25 -19 38 10 15 33 47 34 38 2 -4 -19 -2 -23 16 -23
48 2 25 -57 -28 -70 -35 -9 -54 2 -60 36 -8 37 -18 38 -40 5 -13 -20 -22 -24
-43 -19 -14 4 -33 13 -42 20 -8 8 -21 14 -27 14 -16 0 -52 50 -52 72 0 12 4
16 11 12 6 -3 15 -1 19 6 4 7 22 13 39 14 36 1 38 6 11 31 -21 19 -27 55 -10
55 5 0 25 14 43 30 19 17 40 30 46 30 6 0 11 5 11 11 0 6 6 9 14 6 8 -3 17 1
20 10 4 9 13 13 22 9 9 -3 23 -6 31 -6z m-260 -28 c-10 -10 -17 -25 -18 -33
-1 -8 -4 -3 -8 11 -10 32 -5 40 21 40 20 0 20 -1 5 -18z m-76 -85 c-14 -36
-35 -36 -26 0 7 28 28 49 33 34 1 -4 -2 -20 -7 -34z m39 -11 c-5 -15 -14 -24
-20 -21 -14 9 -12 21 6 40 22 21 27 14 14 -19z m-290 6 c0 -5 -7 -17 -15 -28
-15 -19 -20 -8 -9 20 6 17 24 22 24 8z m904 -48 c5 -14 4 -15 -9 -4 -17 14
-19 20 -6 20 5 0 12 -7 15 -16z m-284 -34 c0 -5 -2 -10 -4 -10 -3 0 -8 5 -11
10 -3 6 -1 10 4 10 6 0 11 -4 11 -10z m230 -119 c0 -12 -20 -25 -27 -18 -7 7
6 27 18 27 5 0 9 -4 9 -9z m170 -25 c0 -7 -11 -21 -25 -30 -29 -19 -35 -3 -8
26 19 21 33 23 33 4z m-700 -226 c0 -17 -15 -11 -28 11 -12 19 -11 19 8 9 11
-6 20 -15 20 -20z"/>
<path d="M6045 5000 c3 -5 10 -10 16 -10 5 0 9 5 9 10 0 6 -7 10 -16 10 -8 0
-12 -4 -9 -10z"/>
<path d="M3002 5854 c10 -10 20 -15 24 -12 3 4 -5 12 -18 18 -22 12 -22 12 -6
-6z"/>
<path d="M6103 5864 c4 -4 31 -11 60 -15 46 -6 105 -17 272 -50 55 -10 130 -3
105 11 -21 11 -192 39 -280 45 -41 3 -95 8 -120 11 -25 3 -41 2 -37 -2z"/>
<path d="M6510 5860 c8 -5 24 -10 35 -10 17 0 17 2 5 10 -8 5 -24 10 -35 10
-17 0 -17 -2 -5 -10z"/>
<path d="M5948 5853 c7 -3 16 -2 19 1 4 3 -2 6 -13 5 -11 0 -14 -3 -6 -6z"/>
<path d="M4458 5833 c12 -2 32 -2 45 0 12 2 2 4 -23 4 -25 0 -35 -2 -22 -4z"/>
<path d="M2983 5805 c15 -14 33 -25 40 -25 7 0 -1 11 -18 25 -39 32 -58 32
-22 0z"/>
<path d="M4933 5807 c12 -13 26 -21 30 -19 11 5 -23 42 -39 42 -8 0 -5 -9 9
-23z"/>
<path d="M4393 5813 c9 -2 23 -2 30 0 6 3 -1 5 -18 5 -16 0 -22 -2 -12 -5z"/>
<path d="M4980 5806 c0 -2 8 -10 18 -17 15 -13 16 -12 3 4 -13 16 -21 21 -21
13z"/>
<path d="M5210 5800 c0 -17 54 -60 61 -48 4 6 17 -3 30 -21 36 -49 42 -36 8
19 -17 28 -35 50 -39 50 -15 0 -21 -18 -8 -23 7 -2 9 -8 5 -13 -5 -5 -19 3
-33 19 -13 15 -24 23 -24 17z"/>
<path d="M6312 5798 c6 -17 72 -36 126 -37 24 -1 41 -5 38 -10 -4 -5 3 -7 15
-4 12 3 24 1 28 -5 4 -7 29 -14 57 -17 47 -4 48 -4 14 6 -19 6 -51 17 -70 24
-39 14 -145 35 -179 35 -12 0 -19 4 -16 10 3 6 1 10 -5 10 -7 0 -10 -6 -8 -12z"/>
<path d="M6466 5685 c3 -7 27 -22 52 -31 26 -10 49 -21 52 -25 16 -22 80 -49
115 -49 l40 1 -27 17 c-16 9 -28 22 -28 28 0 6 -28 19 -62 29 -35 10 -72 25
-83 32 -27 18 -66 17 -59 -2z"/>
<path d="M6520 5616 c0 -2 9 -6 20 -9 11 -3 18 -1 14 4 -5 9 -34 13 -34 5z"/>
<path d="M6280 5600 c8 -5 22 -9 30 -9 10 0 8 3 -5 9 -27 12 -43 12 -25 0z"/>
<path d="M2653 5413 c9 -2 23 -2 30 0 6 3 -1 5 -18 5 -16 0 -22 -2 -12 -5z"/>
<path d="M6350 5399 c0 -5 5 -7 10 -4 6 3 10 8 10 11 0 2 -4 4 -10 4 -5 0 -10
-5 -10 -11z"/>
<path d="M2565 5360 l-30 -8 33 -1 c17 0 32 4 32 9 0 6 -1 9 -2 9 -2 -1 -16
-5 -33 -9z"/>
<path d="M4020 5340 c0 -5 5 -10 10 -10 6 0 10 5 10 10 0 6 -4 10 -10 10 -5 0
-10 -4 -10 -10z"/>
<path d="M4031 5294 c0 -11 3 -14 6 -6 3 7 2 16 -1 19 -3 4 -6 -2 -5 -13z"/>
<path d="M2470 5272 c-5 -2 -8 -7 -5 -12 5 -8 61 3 72 13 4 5 -52 3 -67 -1z"/>
<path d="M6590 5270 c0 -5 5 -10 12 -10 6 0 21 -8 32 -17 15 -13 14 -10 -3 10
-25 28 -41 35 -41 17z"/>
<path d="M2450 5220 c-11 -7 -6 -10 22 -10 20 0 40 5 43 10 8 13 -45 13 -65 0z"/>
<path d="M6650 5199 c0 -11 4 -18 10 -14 5 3 7 12 3 20 -7 21 -13 19 -13 -6z"/>
<path d="M2457 5166 c-52 -12 -55 -28 -3 -20 l31 5 -25 -15 c-14 -8 -20 -15
-13 -16 20 0 43 12 43 22 0 6 8 17 18 24 20 16 14 16 -51 0z"/>
<path d="M2778 5148 c-9 -13 -30 -38 -49 -55 -23 -23 -28 -33 -17 -33 16 0 98
86 98 103 0 15 -18 6 -32 -15z"/>
<path d="M2405 5005 c-17 -13 -25 -24 -19 -25 15 0 61 37 54 44 -3 3 -19 -6
-35 -19z"/>
<path d="M2789 4978 c-7 -18 -14 -36 -17 -40 -2 -5 0 -8 5 -8 10 0 37 69 30
76 -3 3 -11 -10 -18 -28z"/>
<path d="M4071 4990 c0 -8 4 -22 9 -30 12 -18 12 -2 0 25 -6 13 -9 15 -9 5z"/>
<path d="M2974 4949 c-3 -6 -1 -16 5 -22 8 -8 11 -5 11 11 0 24 -5 28 -16 11z"/>
<path d="M3970 4946 c0 -8 6 -21 13 -28 7 -7 18 -24 24 -38 6 -14 12 -19 12
-12 1 14 -37 92 -44 92 -3 0 -5 -6 -5 -14z"/>
<path d="M2646 4914 c-28 -24 -49 -53 -90 -119 -17 -28 -15 -27 18 7 20 20 42
35 49 32 21 -8 51 34 53 72 0 19 0 34 0 34 -1 0 -14 -12 -30 -26z m14 -31 c-1
-14 -30 -47 -36 -41 -3 3 3 16 13 27 19 23 23 25 23 14z"/>
<path d="M2378 4878 c-24 -24 -57 -53 -73 -65 l-30 -22 40 15 c47 18 140 114
110 114 -2 0 -23 -19 -47 -42z"/>
<path d="M2766 4878 c-13 -18 -34 -58 -45 -88 l-21 -54 29 29 c31 31 86 145
71 145 -5 0 -20 -15 -34 -32z"/>
<path d="M2849 4865 c-12 -24 -48 -72 -80 -105 -32 -34 -61 -74 -64 -90 -4
-17 -10 -30 -14 -30 -16 0 -19 13 -10 37 8 21 7 24 -6 19 -18 -6 -19 -2 -5 24
6 10 6 21 2 24 -5 3 -14 -15 -20 -40 -9 -34 -16 -44 -33 -44 -21 0 -21 1 5 34
14 19 26 37 26 41 0 10 -35 -12 -75 -49 -21 -20 -44 -36 -49 -37 -15 0 -96
-124 -96 -146 0 -10 -7 -31 -15 -47 -16 -30 -19 -55 -9 -80 9 -22 26 -20 49 7
15 17 21 41 23 100 3 57 8 77 18 77 8 0 14 -10 14 -22 1 -21 2 -22 14 -5 19
24 24 21 18 -10 -4 -20 -1 -25 9 -21 11 4 13 -8 11 -64 -2 -40 1 -74 7 -82 7
-9 8 -23 2 -42 -5 -16 -15 -67 -22 -113 -9 -67 -9 -85 1 -91 8 -5 10 -17 6
-34 -3 -14 -3 -26 0 -26 18 0 72 70 79 101 14 66 27 67 21 2 -7 -82 8 -89 24
-10 l13 62 8 -43 c5 -25 4 -54 -1 -68 -13 -33 -13 -74 0 -74 19 0 32 84 25
163 -8 101 8 101 31 1 11 -51 19 -72 25 -63 5 8 9 11 9 7 0 -14 -42 -78 -51
-78 -6 0 -9 -6 -7 -12 1 -7 -3 -23 -10 -35 -7 -13 -9 -23 -5 -24 4 0 16 -2 26
-4 10 -2 21 3 23 10 3 7 12 16 20 19 12 5 14 1 9 -17 -4 -15 -4 -18 3 -8 5 7
15 10 22 6 9 -6 9 -3 1 13 -16 30 -14 52 4 46 8 -3 14 -9 13 -12 -3 -18 43
-112 53 -106 4 2 14 -7 23 -21 19 -29 12 -79 -16 -107 -23 -23 -23 -40 -1 -36
10 2 26 21 36 42 20 42 26 43 29 2 1 -15 10 -32 20 -37 10 -5 18 -16 18 -24 0
-8 6 -12 13 -10 20 8 16 -79 -5 -102 -21 -23 -23 -37 -5 -30 10 4 13 -2 10
-17 -6 -29 26 -45 43 -22 17 24 25 19 14 -9 -8 -22 -6 -27 15 -37 13 -6 26
-16 28 -22 6 -16 -32 -14 -62 3 -20 11 -25 11 -32 0 -13 -20 -11 -26 9 -34 36
-15 77 -15 88 0 10 13 17 12 59 -10 30 -16 51 -22 59 -17 6 5 26 10 44 10 49
1 123 32 120 50 -2 9 -10 17 -18 19 -13 4 -13 3 0 -6 8 -6 11 -11 6 -11 -6 0
-21 10 -34 23 -17 15 -26 18 -29 10 -3 -7 -9 -13 -15 -13 -6 0 -8 6 -5 14 3 8
2 27 -3 43 l-8 28 -1 -34 c-1 -33 -2 -34 -15 -15 -8 11 -10 21 -5 25 6 3 6 15
0 30 -5 13 -10 18 -10 12 -1 -22 -21 -14 -21 7 0 11 -7 23 -15 26 -8 4 -15 10
-15 16 0 5 -7 16 -15 24 -8 9 -15 12 -15 8 0 -4 -8 2 -17 12 -10 10 -27 26
-38 34 -19 15 -19 15 -2 -12 17 -27 17 -28 -3 -28 -12 0 -24 9 -29 23 -5 12
-18 28 -29 36 -12 8 -19 18 -16 23 3 4 1 8 -5 8 -12 0 -91 80 -91 92 0 5 -9
19 -21 31 -34 36 -70 118 -76 176 -5 47 -4 53 12 50 18 -4 22 -9 46 -64 16
-35 70 -117 84 -127 36 -26 -16 82 -62 128 -12 13 -23 29 -23 35 0 7 7 4 16
-7 11 -14 17 -16 21 -6 4 11 8 10 22 -1 9 -8 41 -22 71 -32 30 -9 60 -24 66
-31 10 -12 12 -11 17 7 7 27 31 20 35 -10 2 -14 21 -34 50 -52 26 -16 53 -39
60 -52 10 -17 12 -17 7 -3 -3 11 -8 46 -12 79 -5 44 -3 58 5 53 7 -4 12 -14
12 -22 0 -8 4 -13 8 -10 4 2 9 -9 10 -26 1 -17 7 -38 12 -48 6 -10 10 -23 10
-29 0 -18 -18 -12 -23 7 -3 9 -5 0 -6 -20 -1 -28 6 -45 27 -67 45 -50 57 -65
55 -73 -2 -4 8 -15 21 -25 12 -10 29 -36 35 -56 7 -21 15 -36 18 -33 8 8 -18
77 -49 131 -39 68 -60 116 -63 141 -1 11 -5 26 -9 32 -4 7 -9 30 -12 53 -5 40
-4 41 21 37 23 -5 26 -3 22 16 -8 35 7 71 27 68 15 -3 17 1 12 24 -5 20 -4 25
6 21 10 -3 14 4 13 26 0 22 5 33 17 35 14 3 16 -1 11 -14 -5 -14 -3 -16 12
-10 14 5 30 -6 66 -43 26 -27 55 -63 64 -80 8 -17 20 -31 25 -31 6 0 10 -7 10
-15 0 -14 25 -74 60 -145 62 -123 91 -283 55 -296 -8 -4 -15 -10 -15 -15 0
-12 69 -29 113 -27 30 1 37 4 31 17 -3 9 -9 24 -11 33 -3 10 -8 16 -12 14 -3
-2 -7 26 -8 62 -1 46 1 61 7 47 7 -17 9 -16 10 10 l2 30 13 -30 14 -30 1 38
c0 44 -33 97 -46 75 -6 -9 -10 -3 -14 17 -4 17 -2 35 3 42 5 7 4 20 -3 32 -7
14 -7 21 0 21 5 0 10 -6 10 -12 0 -27 20 18 20 47 0 17 7 41 15 55 8 14 14 32
15 41 0 9 18 35 40 58 42 44 52 68 23 56 -10 -4 -39 -10 -65 -14 -53 -9 -68 0
-68 37 0 21 -2 23 -16 11 -13 -10 -17 -10 -25 2 -11 18 -12 49 0 49 5 0 17 -7
25 -16 15 -14 16 -13 16 15 0 24 4 31 20 31 21 0 40 27 33 48 -3 6 0 12 6 12
6 0 11 -6 12 -12 0 -7 4 -3 9 10 5 12 14 22 20 22 5 0 10 9 10 21 0 18 4 20
26 15 14 -4 23 -3 20 2 -3 5 4 16 15 26 14 11 19 25 16 39 -3 12 1 31 9 42 13
17 16 18 25 5 9 -13 10 -12 5 3 -3 9 0 28 6 42 10 23 12 24 24 7 6 -10 17 -37
23 -60 11 -39 31 -58 31 -29 0 9 3 8 9 -2 7 -11 9 -11 14 0 3 10 7 8 13 -6 13
-30 39 -32 29 -3 -3 13 -17 61 -30 108 -13 47 -28 98 -34 113 -6 16 -11 52
-12 80 -2 95 -15 109 -21 22 -3 -46 -10 -81 -17 -83 -6 -2 -11 -13 -12 -25 0
-12 -3 -16 -6 -9 -8 19 -21 14 -26 -10 -4 -22 -4 -22 -6 2 -3 52 -18 51 -18
-2 0 -59 -9 -98 -24 -98 -14 0 -11 30 4 30 6 0 4 5 -5 11 -10 5 -18 22 -18 37
0 21 -2 24 -10 12 -5 -8 -10 -41 -10 -72 0 -31 -5 -60 -10 -63 -6 -4 -8 -16
-4 -27 4 -14 2 -18 -5 -14 -6 4 -11 18 -11 31 0 13 -5 27 -11 31 -8 4 -9 -4
-5 -27 7 -33 6 -33 -9 -14 -16 19 -16 17 -11 -40 4 -41 3 -54 -3 -40 -8 17
-10 15 -12 -15 -1 -28 -3 -30 -6 -10 -7 40 -19 43 -15 4 3 -26 1 -35 -7 -30
-6 4 -11 16 -11 27 0 31 -17 22 -25 -13 l-8 -33 -6 45 -7 45 -8 -42 c-8 -43
-22 -53 -43 -32 -7 7 -12 4 -16 -13 -6 -24 -38 -31 -66 -14 -6 4 -23 5 -37 2
-19 -5 -26 -2 -34 16 l-9 23 0 -22 c-1 -12 -5 -24 -10 -28 -13 -7 -41 34 -41
60 0 16 2 17 9 6 8 -12 11 -9 16 12 5 17 13 25 24 23 33 -6 51 -18 44 -30 -3
-6 4 -1 15 11 14 13 29 19 42 16 12 -3 20 0 20 6 0 7 4 10 8 7 5 -3 5 21 2 52
-6 50 -4 81 13 182 2 14 2 17 0 8 -5 -19 -23 -25 -23 -8 0 6 -5 10 -12 10 -9
0 -9 -3 0 -12 18 -18 15 -95 -3 -102 -11 -4 -14 -13 -9 -30 3 -13 1 -27 -5
-30 -7 -5 -11 3 -11 21 0 15 -5 35 -10 43 -7 11 -9 -4 -6 -50 2 -36 2 -55 -1
-42 -2 12 -8 20 -13 17 -4 -2 -13 9 -20 25 -7 16 -16 27 -20 25 -5 -3 -11 -1
-15 5 -9 15 -25 12 -25 -6 0 -8 -4 -12 -10 -9 -5 3 -10 -4 -10 -16 0 -18 -2
-19 -15 -9 -8 7 -15 27 -15 44 0 38 -29 94 -59 114 -22 15 -22 14 -14 -14 4
-16 8 -43 7 -61 0 -20 3 -30 10 -26 7 5 7 2 0 -8 -14 -17 -24 -80 -12 -73 16
10 7 -44 -11 -65 -16 -19 -19 -19 -25 -5 -4 9 -1 23 5 30 8 10 7 17 -5 29 -9
9 -16 24 -17 33 0 14 -2 13 -8 -3 -5 -11 -5 -22 -1 -25 10 -7 17 -90 8 -90 -5
0 -8 -15 -9 -32 -1 -25 -4 -18 -14 27 -7 33 -13 52 -14 43 0 -10 -5 -18 -11
-18 -5 0 -10 -7 -10 -16 0 -12 -3 -14 -13 -6 -10 8 -12 2 -10 -31 l3 -42 -11
33 c-5 17 -11 32 -12 32 -1 0 -2 -56 -1 -125 1 -102 -1 -122 -11 -108 -7 10
-11 23 -8 30 3 7 2 21 -3 31 -4 9 -8 20 -8 24 -3 22 -16 16 -17 -8 -1 -29 -1
-29 -9 -4 -4 14 -9 18 -9 10 -2 -24 -21 10 -21 37 0 12 -10 27 -21 34 -20 10
-21 9 -14 -17 4 -16 8 -43 10 -61 2 -17 9 -42 16 -55 19 -37 49 -72 49 -58 0
7 3 10 6 7 4 -4 2 -13 -5 -20 -6 -8 -9 -29 -6 -48 5 -27 -2 -19 -33 40 -22 43
-41 69 -44 60 -4 -11 -9 -12 -31 -2 -29 13 -36 3 -18 -26 10 -16 -6 -71 -20
-71 -5 0 -9 5 -9 11 0 5 -4 8 -9 4 -5 -3 -24 8 -42 25 -18 16 -35 28 -37 25
-3 -2 -17 2 -33 10 -15 8 -34 15 -42 15 -27 0 -177 162 -177 192 0 4 -10 18
-21 29 -19 19 -21 29 -15 75 7 57 32 141 48 162 21 26 37 13 32 -25 -3 -24 -1
-31 4 -20 7 17 9 17 35 -5 15 -13 27 -30 27 -38 0 -9 5 -8 15 6 14 18 14 18
15 -6 0 -14 7 -34 15 -44 15 -19 15 -19 15 2 0 12 6 22 14 22 8 0 13 -8 12
-17 0 -10 7 -19 18 -21 15 -3 17 0 11 14 -4 11 -9 42 -11 69 -4 59 -21 158
-23 133 0 -10 -5 -18 -11 -18 -5 0 -7 25 -3 64 8 88 -18 102 -30 15 -1 -8 -6
-15 -10 -17 -24 -11 -23 12 2 86 16 45 27 82 26 82 -2 0 -14 -20 -26 -45z
m-28 -232 c-12 -20 -14 -14 -5 12 4 9 9 14 11 11 3 -2 0 -13 -6 -23z m1289
-61 c0 -33 -16 -18 -26 23 -7 27 -6 29 9 16 10 -7 17 -25 17 -39z m-1515 -42
c6 -55 15 -80 15 -44 1 47 18 -14 25 -84 5 -49 10 -70 16 -61 5 9 6 -2 3 -26
-4 -22 -13 -50 -20 -62 -8 -12 -14 -33 -14 -47 0 -13 -6 -36 -14 -51 -13 -24
-13 -17 -9 70 3 69 0 103 -9 118 -9 16 -12 55 -10 136 2 62 5 111 7 109 2 -2
6 -28 10 -58z m1315 -29 c0 -9 -20 -37 -20 -29 0 3 -2 13 -5 21 -4 8 0 14 10
14 8 0 15 -3 15 -6z m-23 -113 c-3 -8 -6 -5 -6 6 -1 11 2 17 5 13 3 -3 4 -12
1 -19z m-568 -67 c2 -56 -14 -76 -29 -36 -14 38 -13 50 5 35 14 -12 15 -9 12
23 -2 20 -1 34 3 32 4 -2 8 -27 9 -54z m321 -28 c0 -6 2 -17 3 -25 2 -7 2 -9
-1 -4 -2 4 -8 2 -13 -5 -7 -12 -9 -12 -9 0 0 11 -3 11 -15 1 -12 -10 -15 -10
-15 3 0 8 -2 22 -5 29 -4 10 3 14 25 13 16 0 30 -5 30 -12z m-86 -9 c3 -8 2
-12 -4 -9 -6 3 -10 10 -10 16 0 14 7 11 14 -7z m-271 -104 c3 -11 1 -20 -4
-20 -5 0 -9 4 -9 9 0 5 -3 17 -7 27 -4 11 -3 15 4 11 6 -4 13 -16 16 -27z
m353 13 c-6 -14 -4 -14 14 2 13 11 24 15 28 10 4 -6 14 -11 22 -13 8 -2 23
-11 33 -19 9 -9 17 -12 17 -7 1 5 7 -3 15 -18 8 -15 12 -34 9 -42 -7 -18 -34
-22 -34 -5 0 5 -4 8 -9 5 -5 -4 -11 -2 -13 3 -1 5 -10 11 -18 13 -8 2 -21 10
-27 18 -11 13 -12 13 -7 -2 8 -24 -5 -22 -27 4 -21 23 -26 68 -8 68 6 0 8 -7
5 -17z m-354 -78 c3 -14 1 -28 -3 -31 -5 -3 -9 9 -9 25 0 38 6 40 12 6z m526
0 c-1 -14 -6 -25 -10 -25 -4 0 -8 11 -8 25 0 14 4 25 10 25 5 0 9 -11 8 -25z
m-144 -20 c-4 -8 -8 -15 -10 -15 -2 0 -4 7 -4 15 0 8 4 15 10 15 5 0 7 -7 4
-15z m97 -175 c-4 -11 -6 -10 -9 5 -2 11 -8 31 -15 44 -9 19 -9 25 1 28 6 3
13 12 14 21 0 10 4 -5 7 -33 4 -27 4 -57 2 -65z m-688 -280 c-3 -11 -12 -20
-19 -20 -18 0 -18 5 2 24 20 21 23 20 17 -4z m754 -28 c-1 -4 -6 -6 -10 -4 -5
1 -6 -2 -3 -7 10 -16 -11 -22 -24 -6 -7 8 -9 23 -5 36 6 17 9 19 16 8 7 -11 9
-9 9 6 1 18 2 18 10 -3 5 -12 8 -26 7 -30z m-600 6 c-3 -7 -5 -2 -5 12 0 14 2
19 5 13 2 -7 2 -19 0 -25z m-7 -47 c0 -6 -4 -13 -10 -16 -5 -3 -10 1 -10 9 0
9 5 16 10 16 6 0 10 -4 10 -9z m-62 -55 c-7 -8 -17 -12 -22 -9 -4 3 -2 9 5 14
22 13 31 11 17 -5z m86 -9 c-3 -8 -12 -18 -20 -21 -10 -4 -13 -2 -8 7 21 37
41 47 28 14z m-134 -37 c0 -5 -2 -10 -4 -10 -3 0 -8 5 -11 10 -3 6 -1 10 4 10
6 0 11 -4 11 -10z"/>
<path d="M3872 4873 c2 -16 9 -27 15 -26 7 2 15 -9 19 -25 9 -44 26 -78 31
-64 3 7 1 18 -5 25 -5 7 -15 36 -22 65 -8 33 -17 52 -27 52 -10 0 -13 -9 -11
-27z"/>
<path d="M4020 4849 c0 -2 7 -24 14 -49 13 -40 15 -42 15 -15 0 17 -6 39 -14
49 -8 11 -15 18 -15 15z"/>
<path d="M2475 4826 c-11 -7 -31 -17 -44 -21 -34 -10 -123 -69 -91 -60 14 4
33 7 42 8 9 1 15 4 12 8 -2 4 12 13 31 19 19 6 35 15 35 20 0 4 7 11 16 14 12
5 14 1 8 -17 -4 -12 -8 -38 -9 -57 -1 -19 -11 -51 -22 -70 -13 -23 -18 -43
-14 -60 6 -23 7 -23 26 15 10 22 19 47 20 55 2 22 26 93 36 105 12 16 7 57 -5
45 -13 -13 -29 -13 -21 0 8 14 3 13 -20 -4z"/>
<path d="M3729 4784 c7 -14 7 -24 -1 -32 -6 -6 -7 -19 -3 -29 7 -17 8 -17 15
2 13 30 12 39 -6 61 -15 18 -15 18 -5 -2z"/>
<path d="M3972 4760 c0 -25 3 -54 8 -65 11 -27 11 49 0 85 -7 21 -8 17 -8 -20z"/>
<path d="M2566 4721 c-4 -7 -5 -15 -2 -18 9 -9 19 4 14 18 -4 11 -6 11 -12 0z"/>
<path d="M3367 4595 c9 -112 19 -107 38 20 4 24 3 26 -4 10 -9 -18 -10 -18
-10 -2 -1 10 -5 16 -10 12 -5 -3 -12 3 -14 12 -3 10 -3 -13 0 -52z"/>
<path d="M3326 4565 c8 -37 14 -45 14 -19 0 10 -5 26 -10 34 -8 11 -9 7 -4
-15z"/>
<path d="M3312 4540 c0 -14 2 -19 5 -12 2 6 2 18 0 25 -3 6 -5 1 -5 -13z"/>
<path d="M2416 4535 c-9 -26 -7 -32 5 -12 6 10 9 21 6 23 -2 3 -7 -2 -11 -11z"/>
<path d="M3811 4464 c0 -11 3 -14 6 -6 3 7 2 16 -1 19 -3 4 -6 -2 -5 -13z"/>
<path d="M3271 4454 c0 -11 3 -14 6 -6 3 7 2 16 -1 19 -3 4 -6 -2 -5 -13z"/>
<path d="M3091 4418 c-1 -15 4 -30 9 -33 12 -7 12 12 0 40 -8 18 -9 17 -9 -7z"/>
<path d="M4041 4345 c-1 -5 6 -22 13 -37 10 -19 11 -28 4 -28 -15 0 -1 -13 17
-16 11 -2 12 3 4 23 -5 13 -7 29 -3 34 3 5 -1 9 -10 9 -8 0 -17 6 -19 13 -3 6
-6 8 -6 2z"/>
<path d="M2512 4288 c-18 -64 -25 -104 -19 -98 8 7 47 113 47 128 0 27 -16 9
-28 -30z"/>
<path d="M4213 4295 c-15 -17 -3 -27 17 -15 10 6 11 12 5 19 -6 6 -14 4 -22
-4z"/>
<path d="M2850 4290 c0 -5 5 -10 11 -10 5 0 7 5 4 10 -3 6 -8 10 -11 10 -2 0
-4 -4 -4 -10z"/>
<path d="M2412 4270 c-18 -29 -15 -48 4 -22 8 12 14 27 12 32 -2 6 -9 1 -16
-10z"/>
<path d="M4018 4241 c3 -21 8 -28 19 -24 7 3 21 -3 29 -13 13 -17 13 -16 2 11
-16 39 -28 55 -42 55 -8 0 -11 -11 -8 -29z"/>
<path d="M3990 4236 c0 -8 4 -17 9 -20 5 -4 7 3 4 14 -6 23 -13 26 -13 6z"/>
<path d="M4245 4185 c5 -16 14 -55 21 -85 7 -30 13 -44 13 -30 1 29 -24 129
-35 139 -4 3 -3 -7 1 -24z"/>
<path d="M4241 4105 c0 -16 4 -37 9 -45 8 -12 10 -10 9 10 0 14 -4 34 -9 45
-7 17 -9 16 -9 -10z"/>
<path d="M4171 4018 c-1 -23 -21 -34 -32 -17 -6 10 -9 8 -9 -9 0 -13 4 -20 10
-17 6 3 14 -3 18 -15 8 -21 8 -21 20 4 7 17 8 34 2 48 -6 17 -9 18 -9 6z"/>
<path d="M3281 3974 c0 -11 3 -14 6 -6 3 7 2 16 -1 19 -3 4 -6 -2 -5 -13z"/>
<path d="M3390 3961 c0 -5 5 -13 10 -16 6 -3 10 -2 10 4 0 5 -4 13 -10 16 -5
3 -10 2 -10 -4z"/>
<path d="M5986 3954 c-22 -21 -31 -63 -17 -77 20 -20 11 -57 -26 -107 -2 -2
-32 -7 -66 -11 -90 -9 -168 -49 -210 -107 -29 -41 -40 -49 -84 -58 -56 -11
-77 -2 -103 46 -14 25 -15 31 -18 83 l-2 29 -31 -26 c-31 -27 -63 -34 -74 -16
-3 6 1 10 9 10 9 0 16 5 16 10 0 6 8 10 18 10 41 1 50 21 41 93 -5 37 -11 72
-14 77 -10 16 -28 11 -21 -6 3 -8 -1 -22 -9 -30 -8 -9 -15 -26 -15 -39 0 -25
-15 -39 -39 -40 -8 0 -16 -6 -19 -14 -3 -8 0 -11 7 -7 6 4 11 0 11 -9 0 -9 -4
-13 -10 -10 -5 3 -10 2 -10 -4 0 -5 6 -12 13 -14 10 -4 10 -6 0 -6 -7 -1 -13
-8 -13 -16 0 -8 6 -15 13 -15 9 0 8 -3 -2 -9 -10 -7 -8 -12 9 -24 25 -17 57
-12 70 13 13 24 40 34 40 14 0 -18 -85 -58 -102 -48 -8 5 -9 1 -5 -12 7 -18 6
-18 -7 -1 -13 17 -15 13 -20 -40 -4 -32 -17 -92 -31 -133 -23 -72 -23 -75 -6
-95 9 -11 32 -51 51 -89 37 -73 51 -86 76 -65 19 15 38 21 77 21 15 0 27 4 27
9 0 19 37 8 48 -13 10 -22 11 -21 11 8 1 17 4 46 8 65 5 28 7 30 14 14 7 -18
8 -17 9 5 1 23 2 23 10 5 13 -30 12 -65 -2 -63 -6 2 -14 -5 -16 -14 -5 -24 13
-23 38 2 12 12 22 15 26 9 4 -8 9 -7 15 2 7 11 9 9 9 -6 0 -11 7 -32 14 -47 9
-16 11 -30 5 -33 -11 -7 -12 -45 -1 -45 4 0 15 12 26 28 10 15 37 40 59 56 36
25 49 28 109 27 60 -1 72 2 93 23 21 21 35 57 49 126 3 14 18 33 35 43 22 13
35 33 50 79 27 79 27 116 -1 145 -21 22 -21 27 -9 76 21 92 23 106 17 131 -5
22 -98 106 -117 106 -4 0 -15 -7 -23 -16z m-561 -163 c-4 -17 -11 -31 -16 -31
-12 0 -11 11 3 42 16 34 22 28 13 -11z m611 25 c16 -17 19 -36 4 -36 -5 0 -7
-7 -4 -15 8 -19 -3 -19 -23 0 -10 10 -13 24 -9 40 7 29 12 30 32 11z m-85
-108 c11 -17 4 -21 -31 -20 -16 0 -30 -4 -30 -11 0 -8 -3 -8 -11 0 -6 6 -17 9
-24 7 -7 -3 -15 2 -19 12 -4 11 -2 15 8 11 8 -3 17 1 20 10 5 12 15 14 43 10
20 -4 40 -12 44 -19z m69 -8 c0 -5 -7 -7 -15 -4 -8 4 -15 8 -15 10 0 2 7 4 15
4 8 0 15 -4 15 -10z m-195 -20 c3 -5 2 -10 -4 -10 -5 0 -13 5 -16 10 -3 6 -2
10 4 10 5 0 13 -4 16 -10z m-44 -30 c10 -6 19 -20 19 -31 0 -19 -1 -19 -30 3
-44 32 -36 53 11 28z m44 0 c3 -5 1 -10 -4 -10 -6 0 -11 5 -11 10 0 6 2 10 4
10 3 0 8 -4 11 -10z m-44 -62 c13 -25 -1 -22 -34 7 -16 14 -25 30 -22 36 8 11
40 -14 56 -43z m-311 24 c0 -9 -9 -23 -19 -29 -18 -11 -18 -10 -8 18 13 32 27
39 27 11z m-37 -13 c-16 -16 -89 -23 -98 -9 -4 6 -4 14 0 18 4 4 10 1 12 -5 6
-17 45 -16 69 1 21 16 34 12 17 -5z m307 -18 c5 -11 10 -28 9 -38 0 -10 -3
-13 -6 -5 -2 6 -9 10 -13 7 -5 -3 -16 8 -25 25 -15 29 -15 30 4 30 11 0 25 -9
31 -19z m-233 -37 c3 -24 0 -33 -7 -29 -6 4 -9 13 -6 20 3 8 0 15 -6 17 -7 3
-9 12 -5 23 10 25 20 12 24 -31z m181 14 c18 -18 15 -46 -5 -50 -22 -4 -44 32
-30 50 12 15 20 15 35 0z m-68 -19 c0 -5 -4 -9 -10 -9 -5 0 -10 7 -10 16 0 8
5 12 10 9 6 -3 10 -10 10 -16z m-156 -35 c5 -12 -19 -64 -30 -64 -2 0 2 62 5
78 3 9 20 -1 25 -14z m166 12 c0 -3 -4 -8 -10 -11 -5 -3 -10 -1 -10 4 0 6 5
11 10 11 6 0 10 -2 10 -4z m-154 -103 c-10 -10 -19 5 -10 18 6 11 8 11 12 0 2
-7 1 -15 -2 -18z m-86 -189 c0 -8 -5 -12 -10 -9 -6 4 -8 11 -5 16 9 14 15 11
15 -7z"/>
<path d="M4136 3937 c3 -10 9 -15 12 -12 3 3 0 11 -7 18 -10 9 -11 8 -5 -6z"/>
<path d="M2776 3931 c-4 -7 -5 -15 -2 -18 9 -9 19 4 14 18 -4 11 -6 11 -12 0z"/>
<path d="M3350 3930 c0 -8 5 -22 10 -30 9 -13 10 -13 10 0 0 8 -5 22 -10 30
-9 13 -10 13 -10 0z"/>
<path d="M3101 3890 c0 -26 34 -85 49 -85 8 0 21 -4 29 -9 9 -6 12 -5 9 5 -2
8 -13 18 -24 23 -11 5 -30 25 -42 45 -11 20 -21 29 -21 21z"/>
<path d="M5346 3875 c-9 -26 -7 -32 5 -12 6 10 9 21 6 23 -2 3 -7 -2 -11 -11z"/>
<path d="M3917 3829 c4 -13 8 -18 11 -10 2 7 -1 18 -6 23 -8 8 -9 4 -5 -13z"/>
<path d="M4152 3820 c0 -14 2 -19 5 -12 2 6 2 18 0 25 -3 6 -5 1 -5 -13z"/>
<path d="M3427 3780 c9 -11 19 -17 21 -15 6 6 -18 35 -29 35 -5 0 -1 -9 8 -20z"/>
<path d="M3246 3727 c3 -10 9 -15 12 -12 3 3 0 11 -7 18 -10 9 -11 8 -5 -6z"/>
<path d="M3882 3700 c0 -14 2 -19 5 -12 2 6 2 18 0 25 -3 6 -5 1 -5 -13z"/>
<path d="M3463 3677 c4 -26 2 -35 -5 -31 -8 5 -9 -3 -5 -26 4 -18 7 -36 7 -40
0 -9 75 12 87 24 4 5 -4 7 -19 4 -22 -4 -28 -1 -28 13 0 11 -9 36 -21 57 l-21
37 5 -38z"/>
<path d="M3420 3621 c0 -6 4 -13 10 -16 6 -3 7 1 4 9 -7 18 -14 21 -14 7z"/>
<path d="M3576 3615 c26 -20 51 -20 30 0 -8 8 -23 15 -32 15 -16 0 -16 -1 2
-15z"/>
<path d="M3640 3600 c-11 -20 3 -30 15 -10 3 5 12 7 20 3 22 -8 18 5 -5 17
-15 8 -21 6 -30 -10z"/>
<path d="M3320 3589 c0 -5 5 -7 10 -4 6 3 10 8 10 11 0 2 -4 4 -10 4 -5 0 -10
-5 -10 -11z"/>
<path d="M2980 3550 c-12 -8 -12 -10 2 -15 26 -10 43 -2 26 12 -8 7 -19 8 -28
3z"/>
<path d="M2961 3516 c-14 -17 -1 -28 19 -16 11 7 12 12 4 20 -8 8 -14 7 -23
-4z"/>
<path d="M3636 3448 c-19 -21 -19 -21 10 -14 16 4 36 14 44 22 12 12 11 14
-10 13 -14 0 -34 -10 -44 -21z"/>
<path d="M4870 3412 c0 -13 39 -32 45 -22 3 5 -3 14 -14 19 -23 13 -31 14 -31
3z"/>
<path d="M4691 3375 c7 -16 15 -46 19 -65 5 -27 9 -31 15 -17 9 22 0 56 -25
87 l-20 25 11 -30z"/>
<path d="M2620 3370 c0 -5 7 -10 16 -10 8 0 12 5 9 10 -3 6 -10 10 -16 10 -5
0 -9 -4 -9 -10z"/>
<path d="M4456 3303 c6 -4 14 -15 17 -23 5 -11 6 -9 4 4 -1 11 -9 21 -17 23
-10 3 -11 2 -4 -4z"/>
<path d="M4280 3270 c0 -5 5 -10 11 -10 5 0 7 5 4 10 -3 6 -8 10 -11 10 -2 0
-4 -4 -4 -10z"/>
<path d="M2935 3260 c-16 -7 -12 -9 18 -9 23 -1 36 3 32 9 -7 12 -23 12 -50 0z"/>
<path d="M4265 3231 c-3 -5 -1 -12 5 -16 5 -3 10 1 10 9 0 18 -6 21 -15 7z"/>
<path d="M3433 3210 c-3 -11 -12 -20 -20 -20 -8 0 -11 5 -8 10 3 6 -1 10 -9
10 -9 0 -16 -9 -16 -20 0 -17 4 -19 28 -14 28 7 42 20 42 42 0 19 -11 14 -17
-8z"/>
<path d="M5671 3204 c0 -11 3 -14 6 -6 3 7 2 16 -1 19 -3 4 -6 -2 -5 -13z"/>
<path d="M2848 3183 c6 -2 18 -2 25 0 6 3 1 5 -13 5 -14 0 -19 -2 -12 -5z"/>
<path d="M3245 3160 c16 -9 14 -10 -15 -6 l-35 5 30 -14 c33 -16 70 -18 100
-6 16 7 15 9 -12 14 -91 18 -89 18 -68 7z"/>
<path d="M2976 3150 c6 -6 21 -6 39 -1 30 9 30 9 -9 10 -26 1 -37 -2 -30 -9z"/>
<path d="M4960 3146 c0 -9 5 -16 10 -16 6 0 10 4 10 9 0 6 -4 13 -10 16 -5 3
-10 -1 -10 -9z"/>
<path d="M2930 3146 c0 -2 7 -6 15 -10 8 -3 15 -1 15 4 0 6 -7 10 -15 10 -8 0
-15 -2 -15 -4z"/>
<path d="M3062 3135 c-31 -14 -42 -15 -127 -14 -22 0 -57 -3 -78 -7 -35 -5
-37 -7 -20 -20 22 -16 18 -17 -27 -4 -19 5 -43 7 -52 4 -19 -6 -26 -44 -8 -44
5 0 7 -6 4 -14 -3 -8 2 -16 13 -20 27 -7 305 -2 285 6 -11 4 -6 7 18 8 25 2
13 6 -40 15 -118 21 -170 37 -170 53 0 10 6 12 18 7 31 -13 76 -24 117 -29 22
-2 58 -7 80 -11 22 -3 71 0 108 7 l69 14 -59 22 c-32 13 -66 28 -75 33 -21 11
-16 11 -56 -6z"/>
<path d="M5163 3091 c-24 -31 -29 -51 -15 -51 18 0 44 39 40 60 -3 21 -4 20
-25 -9z"/>
<path d="M604 3029 c-3 -6 -2 -15 4 -21 6 -6 8 -17 5 -24 -3 -8 0 -14 7 -14 6
0 14 9 17 20 4 16 8 18 19 9 11 -9 14 -8 14 5 0 9 -7 16 -15 16 -8 0 -15 5
-15 10 0 13 -27 13 -36 -1z"/>
<path d="M712 3002 c2 -11 -5 -18 -19 -20 -27 -4 -30 -20 -5 -38 23 -18 35
-17 28 2 -3 8 -2 13 3 10 5 -3 9 -21 9 -38 0 -18 4 -51 9 -73 5 -22 7 -48 5
-57 -3 -16 -5 -16 -18 -3 -9 8 -29 15 -45 15 -26 0 -29 -3 -29 -30 0 -30 -22
-42 -35 -19 -4 6 -13 8 -20 5 -19 -7 -23 11 -17 71 4 46 2 55 -19 72 -13 11
-18 20 -11 21 6 0 12 5 12 12 0 9 -3 9 -12 0 -7 -7 -22 -12 -34 -12 -14 0 -25
-8 -29 -20 -3 -11 -11 -20 -17 -20 -6 0 -6 6 2 15 10 12 10 15 -3 15 -9 0 -18
-8 -21 -17 -8 -25 -52 -74 -59 -66 -10 10 -76 -62 -103 -112 -13 -25 -24 -58
-25 -73 l-1 -27 -7 25 c-7 24 -7 24 -14 -9 -4 -20 -3 -39 3 -45 13 -13 13 -55
-1 -94 -9 -27 -7 -39 11 -76 11 -25 23 -56 26 -71 6 -33 87 -113 122 -121 71
-15 125 -38 129 -53 2 -9 12 -21 22 -26 71 -39 69 -39 139 -26 126 23 143 31
217 106 44 44 79 90 95 125 14 30 30 58 36 62 6 4 17 28 24 52 7 25 15 44 19
43 8 -3 47 37 61 63 6 12 12 59 12 106 1 67 -2 88 -17 104 -17 19 -17 51 1
118 10 36 -10 25 -35 -18 -19 -35 -25 -39 -38 -28 -8 6 -21 13 -29 14 -7 1
-29 19 -48 40 -31 34 -37 36 -74 31 -34 -6 -40 -4 -45 13 -3 13 -11 18 -21 14
-13 -5 -72 20 -86 37 -3 3 -15 8 -28 12 -17 4 -22 1 -20 -11z m-142 -165 l0
-21 -21 21 c-12 11 -18 26 -14 32 10 17 35 -6 35 -32z m-120 -107 c0 -5 -4
-10 -10 -10 -5 0 -10 5 -10 10 0 6 5 10 10 10 6 0 10 -4 10 -10z m-66 -25 c3
-9 12 -12 22 -8 14 5 16 2 11 -16 -3 -13 -1 -34 5 -47 11 -24 28 -33 28 -14 0
6 9 10 20 10 23 0 24 -4 10 -30 -7 -14 -19 -18 -45 -16 -20 2 -37 5 -38 7 -1
2 -7 13 -13 24 -6 11 -25 27 -43 36 l-33 15 24 27 c26 30 43 34 52 12z m297
-136 c22 -22 19 -49 -5 -49 -13 0 -26 28 -26 58 0 17 7 15 31 -9z m-347 -128
c3 -5 -1 -14 -9 -21 -13 -10 -15 -9 -15 9 0 21 14 28 24 12z"/>
<path d="M2713 2983 c-7 -3 -13 -19 -13 -36 0 -18 -7 -45 -15 -61 -20 -38 -11
-46 16 -12 11 14 27 33 35 40 8 8 14 19 14 25 0 6 5 11 10 11 6 0 10 -3 10 -6
0 -11 -23 -49 -34 -56 -8 -5 -6 -12 6 -24 15 -15 17 -15 28 6 6 12 17 19 25
17 15 -6 55 28 55 46 0 7 -9 1 -19 -12 -12 -16 -21 -20 -25 -12 -4 6 -3 11 1
11 5 0 14 9 21 20 11 18 10 21 -10 29 -32 11 -91 19 -105 14z"/>
<path d="M5276 2963 c-6 -14 -5 -15 5 -6 7 7 10 15 7 18 -3 3 -9 -2 -12 -12z"/>
<path d="M550 2961 c0 -13 29 -35 37 -28 7 8 -15 37 -28 37 -5 0 -9 -4 -9 -9z"/>
<path d="M4474 2954 c-15 -12 -16 -15 -2 -10 9 2 22 -2 28 -10 14 -16 66 -19
74 -5 4 5 -7 12 -24 16 -16 4 -32 11 -35 16 -9 13 -18 11 -41 -7z"/>
<path d="M2888 2953 c6 -2 18 -2 25 0 6 3 1 5 -13 5 -14 0 -19 -2 -12 -5z"/>
<path d="M4690 2940 c0 -5 7 -7 15 -4 8 4 15 8 15 10 0 2 -7 4 -15 4 -8 0 -15
-4 -15 -10z"/>
<path d="M4636 2931 c-4 -7 -5 -15 -2 -18 9 -9 19 4 14 18 -4 11 -6 11 -12 0z"/>
<path d="M2869 2898 c-20 -28 -26 -68 -9 -68 5 0 17 11 26 25 9 14 23 25 30
25 12 0 11 -5 -2 -25 -15 -23 -15 -25 0 -31 9 -4 33 -4 52 -1 20 4 32 2 29 -4
-4 -5 2 -10 12 -10 52 -5 95 5 160 37 39 19 82 34 95 34 17 0 19 3 9 9 -9 6 3
11 38 16 29 4 48 11 45 17 -8 13 -148 8 -193 -8 -36 -12 -56 -10 -33 5 7 4
-44 7 -114 7 -125 -1 -126 -1 -145 -28z"/>
<path d="M4668 2913 c7 -3 16 -2 19 1 4 3 -2 6 -13 5 -11 0 -14 -3 -6 -6z"/>
<path d="M3370 2875 c-30 -7 -71 -15 -91 -19 -20 -4 -47 -15 -59 -26 -13 -11
-30 -20 -38 -20 -9 0 -12 -3 -9 -7 4 -3 0 -11 -9 -18 -12 -8 4 -8 65 0 77 12
151 40 151 58 0 4 5 5 10 2 6 -3 10 -1 10 5 0 6 5 8 10 5 6 -3 10 -1 10 4 0 6
3 10 8 9 4 -2 8 1 10 7 5 14 -8 15 -68 0z"/>
<path d="M4244 2871 c3 -5 -4 -11 -17 -15 -18 -5 -20 -8 -7 -16 12 -8 11 -10
-7 -10 -13 0 -23 -4 -23 -10 0 -5 -7 -10 -16 -10 -8 0 -12 -4 -9 -10 9 -15 31
-12 50 6 16 16 89 39 81 25 -3 -4 4 -13 16 -20 11 -7 17 -8 14 -2 -4 5 -2 12
4 16 6 4 2 15 -10 27 -11 12 -23 19 -26 15 -3 -3 -17 -2 -31 4 -13 5 -22 5
-19 0z"/>
<path d="M2705 2859 c-4 -6 -5 -13 -2 -16 7 -7 27 6 27 18 0 12 -17 12 -25 -2z"/>
<path d="M4858 2863 c7 -3 16 -2 19 1 4 3 -2 6 -13 5 -11 0 -14 -3 -6 -6z"/>
<path d="M4651 2851 c-10 -7 -5 -11 17 -16 38 -8 66 4 36 16 -26 10 -37 10
-53 0z"/>
<path d="M2682 2805 c-6 -14 -8 -25 -4 -25 4 0 12 11 19 25 6 14 8 25 4 25 -4
0 -13 -11 -19 -25z"/>
<path d="M5367 2816 c-4 -10 -5 -21 -2 -24 9 -9 17 6 13 25 -3 17 -4 17 -11
-1z"/>
<path d="M5581 2814 c0 -11 3 -14 6 -6 3 7 2 16 -1 19 -3 4 -6 -2 -5 -13z"/>
<path d="M2780 2816 c0 -10 28 -13 41 -5 10 6 7 9 -13 9 -16 0 -28 -2 -28 -4z"/>
<path d="M4775 2810 c-4 -6 5 -10 20 -10 15 0 24 4 20 10 -3 6 -12 10 -20 10
-8 0 -17 -4 -20 -10z"/>
<path d="M4845 2810 c-3 -5 -1 -10 4 -10 6 0 11 5 11 10 0 6 -2 10 -4 10 -3 0
-8 -4 -11 -10z"/>
<path d="M2874 2795 c-4 -8 -17 -15 -31 -15 -13 0 -22 -4 -19 -9 3 -5 -1 -14
-9 -21 -8 -7 -13 -16 -10 -19 2 -4 -10 -15 -28 -23 -28 -14 -36 -14 -52 -2
-24 18 -35 18 -35 -1 0 -8 10 -17 23 -20 24 -6 29 -32 13 -67 -12 -26 -35 -23
-28 4 8 31 -13 15 -44 -33 -13 -22 -29 -37 -34 -34 -10 6 -25 -22 -34 -67 -4
-16 -11 -25 -19 -23 -16 7 -60 -50 -78 -99 -8 -22 -33 -59 -56 -84 -24 -25
-43 -51 -43 -58 0 -7 -7 -20 -16 -28 -10 -11 -13 -24 -8 -38 l7 -23 8 23 c5
13 13 20 19 17 5 -3 10 1 10 10 0 10 7 15 18 13 11 -2 16 -11 14 -23 -5 -27
-70 -105 -88 -105 -17 0 -19 -16 -3 -26 15 -9 -81 -99 -102 -96 -9 2 -24 -9
-33 -23 -10 -15 -26 -25 -41 -25 -13 0 -35 -4 -50 -10 -45 -17 -85 -21 -85 -9
0 8 -7 6 -18 -4 -28 -25 -47 -21 -86 19 l-35 36 -12 -26 c-17 -36 -30 -33 -22
7 4 23 2 29 -5 22 -10 -9 -15 -84 -12 -167 1 -40 20 -35 20 5 0 18 5 38 12 45
9 9 8 12 -6 12 -18 0 -19 20 -1 23 17 3 34 -65 34 -136 1 -43 5 -66 11 -62 6
4 10 -8 11 -27 0 -18 3 -27 6 -20 8 21 23 3 23 -29 0 -16 5 -29 10 -29 10 0
14 30 10 83 -1 19 3 27 14 27 9 0 16 -4 16 -10 0 -5 6 -7 14 -4 19 7 14 -165
-5 -176 -24 -16 10 -67 82 -122 114 -87 131 -98 141 -92 5 3 16 0 24 -7 21
-17 -1 -29 -35 -18 -14 4 -40 10 -56 12 -51 7 -153 68 -166 99 -6 16 -15 28
-20 28 -5 0 -9 7 -9 15 0 9 -6 18 -14 21 -23 9 -68 112 -75 170 -9 81 -25 66
-31 -28 -6 -95 -14 -93 -26 7 l-8 70 -6 -45 c-4 -24 -5 -54 -3 -65 4 -16 3
-17 -6 -5 -5 8 -8 35 -5 60 4 34 3 41 -5 30 -7 -9 -11 -50 -9 -102 1 -58 -2
-92 -10 -100 -7 -7 -12 -22 -12 -34 0 -12 -5 -24 -12 -26 -14 -5 5 -103 28
-148 13 -25 13 -24 14 13 0 51 22 44 35 -10 6 -23 13 -45 18 -49 4 -4 7 -28 7
-53 l-1 -46 -14 30 c-15 34 -20 19 -5 -19 14 -39 -12 -23 -35 22 -50 93 -85
134 -85 97 0 -20 -10 -19 -26 3 -12 16 -13 16 -14 0 0 -9 4 -19 9 -22 4 -3 6
-16 4 -28 -4 -22 8 -55 44 -122 13 -24 13 -33 2 -55 -7 -14 -11 -32 -10 -38 1
-7 -2 -13 -7 -13 -14 0 -25 34 -13 38 6 2 9 8 5 13 -9 16 -24 -1 -24 -27 0
-14 -7 -27 -15 -30 -8 -4 -15 -11 -15 -17 0 -12 -65 -77 -78 -77 -5 0 -15 -6
-21 -14 -7 -8 -20 -15 -29 -15 -43 0 -99 -8 -110 -15 -7 -4 -20 -2 -28 5 -13
10 -16 9 -21 -10 -4 -17 -8 -19 -14 -9 -7 10 -9 10 -9 1 0 -7 -7 -13 -16 -13
-11 0 -14 6 -9 23 5 19 2 17 -25 -11 -21 -23 -29 -39 -25 -53 5 -14 2 -19 -13
-19 -11 0 -25 -7 -32 -15 -11 -13 -8 -15 15 -15 19 0 38 11 60 34 18 19 35 32
39 29 9 -9 -54 -83 -72 -83 -9 0 -25 -8 -36 -18 -12 -10 -36 -25 -55 -32 -30
-12 -34 -11 -43 4 -8 15 -12 13 -33 -16 -14 -18 -29 -44 -35 -56 -6 -13 -19
-26 -29 -29 -11 -3 -21 -17 -25 -34 -3 -18 -12 -29 -22 -29 -11 0 -15 -6 -11
-20 3 -10 -1 -27 -7 -36 -10 -14 -16 -14 -34 -5 -21 11 -22 10 -21 -16 1 -15
-1 -43 -5 -61 -7 -28 -5 -32 11 -29 10 1 24 6 31 10 8 6 12 1 12 -17 0 -25 29
-44 49 -32 5 3 11 -1 15 -9 11 -29 95 25 96 62 0 8 18 12 53 11 90 -2 93 0
125 47 16 24 33 41 37 37 5 -4 5 2 1 13 -4 11 -10 32 -13 48 -3 15 -10 27 -15
27 -6 0 -7 -11 -4 -25 12 -47 -29 -104 -75 -105 -9 0 -29 48 -29 70 0 10 16
31 35 46 19 14 33 29 31 33 -11 17 24 42 56 39 29 -3 34 -7 39 -38 4 -19 7
-29 8 -22 0 7 6 10 12 7 6 -4 7 -20 3 -38 -6 -30 -4 -29 54 31 34 34 66 62 72
62 6 0 8 -5 5 -10 -12 -20 11 -9 43 20 41 37 72 55 72 40 0 -19 42 -11 47 10
6 22 19 26 26 8 3 -10 8 -9 22 2 17 14 18 13 12 -3 -5 -14 -3 -17 11 -13 13 4
22 -1 32 -18 7 -14 18 -22 26 -19 9 3 14 -2 14 -14 0 -11 16 -28 40 -43 22
-14 40 -28 40 -31 0 -6 23 -16 57 -24 7 -2 15 1 19 6 7 12 84 12 84 0 0 -5 8
-7 18 -4 11 3 28 -6 43 -22 34 -36 87 -68 104 -62 7 3 19 -1 26 -9 7 -9 21
-13 30 -11 10 3 26 -4 35 -14 25 -28 34 -23 32 14 -3 29 0 32 25 31 15 0 27 4
27 8 0 4 11 8 24 8 27 0 79 37 71 51 -9 14 87 70 111 64 30 -7 85 22 77 40 -3
8 0 15 6 15 6 0 11 5 11 11 0 11 -47 77 -65 92 -7 6 -6 10 2 14 10 3 10 10 2
25 -8 16 -8 22 2 28 14 9 20 50 8 50 -5 0 -6 7 -2 16 3 9 0 19 -6 24 -8 4 -14
38 -15 87 -3 71 -1 79 15 80 11 1 19 -2 19 -6 0 -5 23 -6 50 -3 38 3 50 1 50
-9 0 -17 52 -46 98 -55 17 -4 32 -10 32 -15 0 -5 11 -9 25 -9 25 0 31 2 93 33
19 9 43 17 55 17 12 0 51 25 87 55 130 110 161 129 197 126 27 -2 39 4 63 29
17 18 30 38 30 46 0 23 38 54 65 54 14 0 25 5 25 10 0 6 5 10 10 10 25 0 50
41 47 75 -3 19 -1 35 4 35 4 0 -16 35 -46 78 -40 58 -67 85 -108 110 -62 36
-72 37 -142 17 -49 -14 -49 -14 -9 -9 25 3 45 1 49 -5 3 -6 14 -11 24 -11 12
0 20 -9 23 -24 7 -35 -9 -56 -43 -56 -23 0 -32 -6 -41 -27 -7 -16 -13 -29 -14
-31 -1 -2 -27 -1 -57 3 -47 6 -54 10 -50 26 4 15 0 19 -23 19 -15 0 -36 -8
-46 -17 -19 -17 -19 -16 -12 12 10 42 12 45 37 45 13 0 30 9 40 20 10 12 21
18 26 15 5 -2 12 2 15 10 9 26 -23 30 -88 12 -34 -10 -83 -24 -111 -31 -39
-11 -62 -27 -101 -69 -28 -30 -56 -56 -62 -58 -23 -8 -173 -152 -188 -180 -19
-38 -40 -65 -84 -107 -28 -26 -40 -32 -60 -27 -14 4 -43 7 -65 8 -37 2 -54 11
-55 30 0 4 7 7 15 7 31 0 13 42 -40 96 -30 30 -60 52 -65 49 -6 -3 -7 1 -4 9
3 9 -4 27 -15 42 -12 15 -21 33 -21 40 0 7 -15 29 -34 49 -19 19 -37 47 -40
61 -5 20 -12 25 -27 21 -28 -8 -47 33 -31 68 15 33 26 32 58 -10 31 -42 71
-68 61 -41 -6 15 -4 15 18 -1 13 -10 25 -24 25 -31 0 -7 4 -11 9 -8 5 3 14 -8
21 -24 7 -17 17 -30 22 -30 5 0 8 -8 6 -17 -6 -26 64 -155 76 -142 7 7 -54
142 -74 164 -21 24 -81 153 -78 169 1 6 -8 33 -21 60 -20 41 -26 46 -31 30 -4
-10 -5 -26 -2 -34 4 -11 2 -12 -7 -4 -16 15 -27 84 -13 84 6 0 14 -5 17 -10 4
-6 11 -8 16 -5 5 4 9 1 9 -5 0 -7 8 -9 20 -5 11 4 20 2 20 -4 0 -6 7 -8 15 -5
8 4 15 1 15 -5 0 -6 4 -11 9 -11 6 0 3 16 -5 35 -14 36 -8 45 15 23 10 -11 11
-9 5 7 -7 18 -6 19 12 5 10 -7 24 -19 29 -25 7 -8 11 5 12 42 2 40 -1 55 -12
60 -12 4 -13 9 -4 19 6 7 8 18 4 24 -13 22 7 29 28 9 12 -11 23 -15 25 -10 2
5 9 8 16 5 9 -3 11 17 10 81 -1 78 0 84 14 64 11 -17 16 -18 23 -8 5 8 6 21 3
30 -2 10 2 19 11 23 10 4 14 2 9 -5 -4 -7 -1 -10 6 -7 7 2 14 20 15 38 4 54
40 145 57 144 9 -1 23 16 32 37 10 22 21 37 26 34 4 -3 21 10 36 27 l27 33 -6
-31 c-11 -55 -14 -80 -9 -65 3 11 8 8 18 -10 7 -13 13 -19 14 -12 0 6 16 39
34 72 19 34 32 61 28 61 -4 0 -2 4 4 8 6 4 16 16 22 27 9 17 10 13 6 -20 -4
-30 -3 -36 5 -25 9 13 12 13 20 1 7 -11 15 -5 38 27 15 23 31 41 34 42 3 0 4
-15 2 -32 -3 -25 -2 -30 6 -18 9 12 11 11 11 -8 0 -23 0 -23 25 5 l25 28 -10
-29 c-6 -16 -8 -31 -5 -34 3 -3 5 -1 5 4 0 5 18 30 40 54 22 25 50 59 62 76
12 17 30 36 39 43 28 17 13 -14 -43 -89 -26 -35 -48 -73 -48 -83 0 -18 3 -17
35 7 36 28 49 22 18 -7 -10 -9 -27 -33 -38 -54 -23 -45 -54 -80 -42 -50 23 61
17 68 -16 17 -40 -64 -57 -120 -34 -120 17 0 47 32 47 50 0 7 3 10 7 6 4 -4
17 9 29 29 19 32 23 34 34 20 12 -14 11 -18 -1 -26 -8 -5 -10 -9 -5 -9 4 0 2
-10 -6 -22 -17 -28 -23 -88 -9 -88 5 0 18 11 29 25 11 13 32 30 48 37 16 7 36
19 44 28 24 24 60 41 71 34 6 -3 18 3 27 13 9 11 30 23 47 27 16 4 32 11 35
14 3 4 20 20 38 35 36 29 63 37 42 12 -7 -8 -9 -15 -6 -15 9 0 55 52 56 62 0
7 7 16 57 74 21 25 58 46 76 43 33 -6 111 58 143 116 10 19 22 35 26 35 5 0 8
4 8 9 0 13 -37 2 -51 -15 -6 -8 -17 -14 -23 -14 -8 0 -8 2 1 8 6 4 13 16 15
27 1 11 8 24 13 28 6 5 4 7 -5 4 -8 -2 -14 -10 -12 -16 1 -7 -2 -10 -8 -6 -5
3 -19 1 -31 -6 -17 -9 -20 -8 -13 3 4 7 -2 5 -14 -5 -12 -11 -26 -16 -33 -11
-7 4 -10 3 -5 -4 4 -6 -13 -22 -41 -38 -27 -15 -55 -33 -63 -40 -13 -11 -16
-10 -16 5 0 10 5 17 11 15 16 -7 94 48 88 62 -3 9 -12 10 -34 2 -31 -11 -44
-10 -183 17 -50 9 -98 14 -108 12 -10 -3 -20 -1 -23 3 -3 4 -28 11 -57 15 -28
4 -65 13 -82 21 -30 13 -30 13 32 14 66 0 88 19 25 21 -21 1 -42 1 -46 0 -5
-1 -30 -4 -55 -7 -36 -3 -42 -2 -27 6 16 8 14 9 -12 5 -18 -3 -48 -8 -65 -12
-39 -8 -60 -5 -70 10 -5 8 -13 5 -23 -10 -9 -13 -23 -23 -31 -23 -8 0 -12 -5
-9 -11 4 -5 -1 -19 -10 -29 -11 -12 -14 -26 -10 -39 3 -12 2 -21 -3 -21 -5 0
-9 -8 -8 -17 0 -10 -5 -17 -12 -15 -9 2 -12 -4 -8 -16 4 -12 -3 -29 -19 -48
-14 -16 -25 -24 -25 -18 0 5 9 20 19 31 19 20 18 33 -1 33 -5 0 -17 -19 -27
-42 -11 -24 -35 -59 -55 -78 -21 -19 -42 -41 -49 -49 -7 -7 -24 -25 -39 -39
-16 -15 -28 -32 -28 -38 0 -6 -7 -17 -15 -24 -17 -15 -19 -7 -5 21 8 15 7 19
-5 19 -21 0 -19 33 4 54 30 27 33 56 8 57 -19 1 -20 2 -3 6 31 8 106 88 107
114 l0 24 16 -22 c18 -27 33 -30 33 -7 0 9 27 45 60 81 33 35 60 73 60 83 0
12 7 20 18 20 13 0 14 2 4 9 -18 11 7 21 56 21 25 0 32 3 23 9 -9 6 -10 11 -2
15 19 12 2 26 -30 26 -17 0 -32 -6 -35 -15z m31 -5 c3 -6 -1 -7 -9 -4 -18 7
-21 14 -7 14 6 0 13 -4 16 -10z m100 -130 c3 -5 -1 -10 -10 -10 -9 0 -13 5
-10 10 3 6 8 10 10 10 2 0 7 -4 10 -10z m185 -64 c0 -7 -8 -16 -17 -20 -10 -3
-29 -10 -43 -16 -22 -9 -20 -6 9 20 37 33 51 37 51 16z m-660 -290 c0 -15 -30
-50 -36 -43 -3 2 0 16 5 31 11 28 31 36 31 12z m618 -35 c-13 -17 -27 -30 -32
-30 -6 -1 3 13 19 29 37 38 43 39 13 1z m-1328 -801 c0 -5 -2 -10 -4 -10 -3 0
-8 5 -11 10 -3 6 -1 10 4 10 6 0 11 -4 11 -10z m275 0 c-3 -5 0 -10 7 -10 7 0
24 -19 36 -43 l24 -42 -42 42 c-35 36 -45 63 -24 63 3 0 2 -4 -1 -10z m95 -30
c0 -5 -2 -10 -4 -10 -3 0 -8 5 -11 10 -3 6 -1 10 4 10 6 0 11 -4 11 -10z
m-336 -86 c4 -14 2 -21 -8 -21 -18 0 -37 42 -29 62 5 14 7 14 18 -2 7 -10 15
-27 19 -39z m60 -48 c-5 -30 -1 -52 11 -77 17 -32 17 -33 1 -20 -10 8 -26 31
-36 52 -17 32 -17 38 -5 43 8 3 15 17 15 31 0 15 4 23 10 20 5 -3 7 -25 4 -49z
m1126 5 c0 -17 -67 -81 -84 -81 -16 0 -3 30 27 63 35 41 57 47 57 18z m404
-76 c3 -8 1 -15 -4 -15 -6 0 -10 7 -10 15 0 8 2 15 4 15 2 0 6 -7 10 -15z
m-430 -16 c-12 -13 -20 -16 -22 -9 -3 7 2 16 9 21 25 16 32 9 13 -12z m-924
-63 c0 -12 -25 -1 -32 14 -14 31 -7 42 12 17 11 -14 20 -28 20 -31z m314 -158
c-3 -4 0 -8 5 -8 19 0 12 -22 -9 -27 -11 -3 -20 -11 -20 -18 0 -7 -6 -16 -12
-19 -10 -5 -10 -7 1 -12 11 -5 11 -8 0 -15 -11 -7 -11 -9 3 -9 9 0 26 -12 38
-27 19 -24 20 -29 6 -39 -9 -6 -42 -14 -74 -17 -32 -4 -67 -9 -76 -13 -16 -6
-17 -4 -8 13 6 11 9 23 6 25 -2 3 2 18 10 34 19 35 14 41 -17 21 -32 -21 -97
-33 -97 -18 0 6 10 16 23 21 12 5 18 9 13 9 -15 1 45 60 79 78 52 27 141 42
129 21z m-147 -290 c-3 -8 -6 -5 -6 6 -1 11 2 17 5 13 3 -3 4 -12 1 -19z
m-804 -68 c-3 -11 -1 -20 5 -20 5 0 12 -6 15 -14 4 -10 -11 -13 -74 -12 -55 1
-79 5 -79 13 0 14 33 34 75 44 53 13 64 11 58 -11z m761 1 c-4 -9 -8 -29 -9
-46 -1 -44 -12 -57 -36 -45 -11 6 -25 8 -31 4 -8 -5 -9 2 -5 24 4 19 2 32 -3
32 -6 0 -10 5 -10 11 0 6 9 8 21 4 14 -5 25 -1 34 12 17 24 49 27 39 4z m-701
-37 c3 -18 1 -22 -6 -15 -13 13 -18 41 -7 41 4 0 10 -12 13 -26z m-122 -34 c5
0 9 -13 9 -29 0 -29 0 -29 -59 -28 -55 0 -59 2 -50 18 12 23 60 50 77 44 8 -3
18 -5 23 -5z m-197 -46 c3 -8 -9 -20 -29 -30 -19 -9 -35 -20 -35 -25 0 -5 -9
-9 -20 -9 -24 0 -25 13 -3 51 13 22 24 28 49 27 18 -1 35 -7 38 -14z m-69 -94
c18 -19 17 -21 -14 -50 -31 -30 -31 -31 -14 -54 10 -13 22 -22 26 -19 5 3 7
-5 5 -18 -1 -13 -9 -24 -16 -24 -7 0 -17 -7 -23 -15 -7 -11 -8 -4 -3 23 7 41
-10 53 -20 13 -6 -25 -44 -42 -60 -26 -7 7 -4 20 7 39 9 15 14 31 11 34 -12
12 56 117 76 117 4 0 15 -9 25 -20z"/>
<path d="M3459 2783 c-12 -15 -12 -16 4 -10 10 4 23 7 28 7 5 0 9 5 9 10 0 16
-26 12 -41 -7z"/>
<path d="M4317 2790 c-20 -4 -40 -10 -44 -13 -10 -11 62 -8 73 2 5 5 18 11 29
14 l20 5 -20 0 c-11 0 -37 -4 -58 -8z"/>
<path d="M2973 2783 c9 -2 23 -2 30 0 6 3 -1 5 -18 5 -16 0 -22 -2 -12 -5z"/>
<path d="M3640 2780 c-9 -6 -10 -10 -3 -10 6 0 15 5 18 10 8 12 4 12 -15 0z"/>
<path d="M3566 2745 c-16 -8 -34 -15 -41 -15 -7 0 -18 -7 -26 -16 -7 -9 -22
-14 -35 -11 -12 2 -30 -2 -40 -10 -16 -12 -15 -13 12 -13 47 0 119 25 143 49
29 29 23 34 -13 16z"/>
<path d="M5046 2742 c-17 -9 -42 -29 -56 -43 -15 -15 -37 -32 -49 -38 -11 -7
-21 -17 -21 -23 0 -14 83 -3 88 11 2 6 10 11 17 11 7 0 29 23 49 50 29 40 33
50 18 50 -9 0 -30 -8 -46 -18z"/>
<path d="M3293 2722 c-24 -2 -43 -7 -43 -11 0 -14 58 -21 84 -11 13 5 27 6 30
3 3 -4 6 0 6 8 0 15 -6 16 -77 11z"/>
<path d="M4051 2694 c-18 -8 -38 -13 -44 -11 -6 2 -19 -5 -30 -16 -10 -10 -25
-16 -33 -13 -7 3 -13 2 -13 -2 1 -4 1 -9 -1 -12 -1 -3 -3 -16 -6 -29 -4 -20
-2 -22 10 -11 9 6 20 9 26 5 6 -4 9 -3 8 2 -6 16 39 50 65 49 16 -1 27 4 27
11 0 7 4 13 9 13 5 0 11 7 15 15 3 8 4 15 3 14 -1 0 -17 -7 -36 -15z m-96 -64
c-3 -5 -12 -10 -18 -10 -7 0 -6 4 3 10 19 12 23 12 15 0z"/>
<path d="M4445 2695 c-23 -10 -26 -14 -10 -14 32 -1 95 11 95 18 0 13 -55 10
-85 -4z"/>
<path d="M5250 2691 c0 -5 -3 -17 -7 -26 -6 -16 -4 -16 20 0 32 21 35 35 7 35
-11 0 -20 -4 -20 -9z"/>
<path d="M3515 2670 c-3 -5 1 -10 10 -10 9 0 13 5 10 10 -3 6 -8 10 -10 10 -2
0 -7 -4 -10 -10z"/>
<path d="M3719 2663 c-13 -16 -12 -17 4 -4 16 13 21 21 13 21 -2 0 -10 -8 -17
-17z"/>
<path d="M5185 2654 c-19 -29 -13 -43 10 -24 8 7 15 9 15 4 0 -5 5 -1 11 9 10
17 5 37 -10 37 -5 0 -16 -12 -26 -26z"/>
<path d="M4194 2655 c-17 -13 -17 -14 -2 -15 9 0 20 5 23 11 11 17 0 20 -21 4z"/>
<path d="M4615 2655 c-16 -7 -55 -17 -85 -20 -79 -9 -106 -20 -180 -70 -84
-59 -132 -100 -105 -91 17 6 17 4 -5 -17 -14 -14 -28 -23 -31 -21 -9 5 -72
-36 -65 -43 3 -3 12 -1 19 5 8 7 27 13 43 15 16 2 44 11 63 21 18 10 30 13 27
7 -4 -6 -2 -11 5 -11 7 0 9 -3 6 -7 -4 -3 -1 -13 6 -22 11 -14 10 -14 -6 -2
-15 12 -20 11 -35 -3 -10 -9 -25 -16 -33 -16 -8 1 -1 8 14 16 16 9 27 18 24
21 -3 2 -17 -3 -31 -12 -21 -14 -24 -20 -15 -31 10 -12 15 -12 36 2 18 11 28
13 36 5 23 -23 217 -5 217 20 0 4 -17 5 -37 3 -28 -4 -34 -3 -23 5 8 5 17 8
21 5 4 -2 31 4 58 15 53 20 71 14 24 -8 -19 -9 -23 -15 -14 -20 17 -11 -32
-30 -104 -40 -65 -9 -86 -28 -66 -60 7 -10 13 -11 30 -2 29 16 26 0 -9 -44
-16 -21 -30 -42 -30 -46 0 -13 14 -11 28 3 9 9 12 9 13 -3 1 -7 1 -17 0 -21 0
-5 3 -8 9 -8 6 0 10 10 10 23 l1 22 19 -24 c11 -13 20 -18 20 -12 0 6 4 11 10
11 18 0 -2 -30 -35 -50 -22 -13 -32 -26 -28 -36 7 -19 -20 -59 -81 -118 -58
-55 -50 -69 20 -35 29 13 58 39 77 65 31 45 48 53 27 14 -6 -12 -9 -33 -5 -48
4 -22 -3 -36 -40 -77 -67 -72 -97 -138 -52 -113 12 7 26 12 32 13 5 0 15 11
22 25 10 19 13 21 13 7 0 -19 -73 -97 -123 -131 -16 -11 -26 -25 -23 -33 3 -8
1 -11 -4 -8 -6 3 -13 -1 -16 -9 -3 -9 -11 -13 -17 -9 -6 4 -8 0 -5 -9 4 -9 0
-15 -8 -15 -8 0 -13 6 -10 14 8 21 -15 15 -35 -9 -11 -11 -19 -18 -19 -13 0 4
-7 2 -15 -5 -8 -7 -15 -19 -15 -27 0 -16 -57 -104 -96 -148 -19 -22 -24 -24
-19 -10 4 11 8 25 9 32 1 7 10 21 21 33 26 29 3 25 -25 -5 -13 -14 -19 -25
-14 -25 5 0 4 -4 -2 -8 -6 -4 -26 -27 -43 -52 -17 -25 -39 -55 -47 -67 -30
-42 -9 -42 45 -1 30 23 51 36 47 30 -4 -7 -2 -12 5 -12 7 0 -3 -14 -22 -31
-24 -21 -28 -28 -14 -24 11 3 0 -4 -25 -15 -24 -12 -48 -26 -52 -33 -4 -7 -8
-7 -8 -2 -1 18 -20 -19 -20 -39 0 -13 5 -17 20 -13 11 3 20 1 20 -4 0 -5 -11
-9 -25 -9 -26 0 -29 -7 -19 -34 8 -20 18 -20 39 1 16 16 17 13 14 -35 l-4 -53
29 7 c25 5 28 4 22 -11 -9 -26 57 -89 88 -83 19 4 22 1 18 -14 -3 -14 2 -21
17 -25 11 -3 21 -9 21 -13 0 -22 104 -113 131 -115 25 -1 89 -43 89 -58 0 -10
5 -15 11 -12 12 8 69 -13 69 -25 0 -12 44 -20 51 -9 6 10 65 -32 82 -58 4 -7
14 -13 22 -13 7 0 26 -6 42 -14 103 -51 153 -60 153 -26 0 11 7 20 15 20 11 0
14 7 9 24 -7 28 20 43 43 24 11 -9 16 -9 21 0 4 6 22 10 39 10 31 -1 31 -1 11
-17 -18 -15 -19 -18 -4 -30 14 -12 18 -12 29 2 7 10 24 18 39 19 22 2 25 5 17
21 -6 10 -19 21 -29 25 -21 8 -167 145 -162 152 5 7 -31 60 -40 60 -5 0 -8 8
-8 18 0 21 31 -13 75 -82 27 -43 87 -87 101 -74 3 4 -8 14 -25 22 -17 9 -38
29 -48 44 -9 15 -26 38 -37 52 l-21 25 24 -20 c24 -20 24 -20 17 0 -5 14 2 10
23 -12 33 -36 44 -41 34 -18 -3 9 -8 14 -11 11 -2 -3 -13 12 -24 34 -12 23
-25 37 -33 34 -15 -6 -60 79 -52 98 4 8 8 4 12 -10 4 -12 14 -22 21 -22 18 0
18 41 0 85 -9 21 -14 64 -14 107 1 49 4 65 9 48 4 -16 7 -19 8 -7 1 9 6 17 12
17 11 0 8 66 -7 140 -2 14 7 -4 21 -40 14 -36 30 -69 35 -74 16 -16 11 -25
-10 -21 -25 5 -25 -2 -1 -55 11 -24 21 -36 24 -28 2 7 12 -14 22 -47 9 -33 21
-64 26 -69 5 -6 5 3 0 20 -4 16 -6 43 -4 60 3 18 -2 45 -11 62 -9 17 -16 41
-16 52 0 12 -6 27 -13 35 -8 7 -20 41 -27 74 -7 34 -16 61 -19 61 -3 0 -6 43
-6 96 0 52 -3 100 -7 107 -5 7 -8 1 -8 -15 0 -18 -5 -28 -15 -28 -8 0 -15 5
-15 11 0 5 5 7 10 4 6 -3 10 -1 10 4 0 6 -3 11 -7 11 -5 0 -8 33 -9 73 -1 69
-1 70 8 28 8 -38 12 -42 20 -27 10 17 6 106 -9 215 -5 38 -4 43 11 38 10 -4
16 -1 16 8 0 8 -6 14 -12 13 -9 -2 -15 21 -19 77 -7 104 2 118 19 30 7 -38 17
-88 22 -110 l9 -40 -3 47 c-2 26 0 45 5 42 5 -3 9 -16 9 -30 0 -14 4 -23 10
-19 5 3 11 -31 13 -87 2 -51 3 -30 2 47 -1 77 0 124 3 105 2 -19 8 -39 13 -44
9 -10 10 -3 15 109 1 33 7 89 13 125 7 36 12 75 13 87 0 14 5 20 14 16 8 -3
12 -13 10 -22 -3 -9 -6 -36 -7 -61 -2 -25 -7 -48 -11 -51 -5 -3 -5 -16 0 -29
9 -26 16 -20 26 23 4 15 11 25 16 22 6 -4 7 -12 4 -18 -5 -9 -4 -9 5 -1 9 8
10 24 5 50 l-8 39 -8 -30 c-5 -21 -6 -16 -3 19 3 27 5 77 5 112 0 41 4 64 11
64 8 0 10 -22 7 -72 -3 -40 -4 -63 -1 -50 2 12 9 20 14 17 5 -4 9 3 9 14 0 11
4 22 9 25 9 6 27 140 22 166 -1 8 -3 26 -3 39 0 21 -3 23 -36 17 -20 -3 -38
-10 -40 -16 -5 -13 -32 -13 -32 0 0 6 -4 10 -10 10 -5 0 -10 -7 -10 -15 0 -10
-9 -15 -27 -14 -17 1 -21 3 -10 6 9 2 17 9 17 15 0 6 -10 7 -27 2 -16 -4 -44
-9 -64 -10 -20 0 -42 -5 -49 -9 -10 -6 -12 -1 -8 18 5 24 2 26 -30 29 -35 3
-35 4 -18 21 23 22 21 24 -34 31 -28 3 -56 0 -75 -9z m-195 -85 c0 -5 -5 -10
-11 -10 -5 0 -7 5 -4 10 3 6 8 10 11 10 2 0 4 -4 4 -10z m-25 -20 c3 -5 1 -10
-4 -10 -6 0 -11 5 -11 10 0 6 2 10 4 10 3 0 8 -4 11 -10z m286 -17 c-8 -15
-10 -15 -11 -2 0 17 10 32 18 25 2 -3 -1 -13 -7 -23z m332 -28 c-3 -9 -8 -14
-10 -11 -3 3 -2 9 2 15 9 16 15 13 8 -4z m-428 -15 c-10 -11 -21 -18 -23 -15
-3 3 3 12 14 20 27 20 30 18 9 -5z m-250 -50 c-3 -5 -10 -10 -16 -10 -5 0 -9
5 -9 10 0 6 7 10 16 10 8 0 12 -4 9 -10z m641 -98 c-3 -3 -6 3 -6 14 0 16 -2
17 -11 4 -9 -12 -10 -12 -5 3 3 10 6 26 7 35 0 9 5 2 10 -17 6 -18 8 -36 5
-39z m-89 -64 c-3 -8 -6 -5 -6 6 -1 11 2 17 5 13 3 -3 4 -12 1 -19z m-38 -46
c0 -35 -3 -42 -9 -27 -12 28 -12 88 0 80 6 -3 10 -27 9 -53z m-281 -92 c-2
-33 0 -60 5 -60 5 0 6 -7 3 -16 -3 -8 -2 -12 4 -9 6 3 10 1 10 -5 0 -6 -7 -13
-16 -17 -8 -3 -13 -12 -10 -20 3 -8 2 -12 -3 -9 -15 10 -50 -84 -52 -143 -2
-32 -2 -33 -6 -7 -3 15 2 58 11 95 8 36 18 98 21 136 8 88 14 115 27 115 6 0
9 -23 6 -60z m329 -7 c-2 -16 -4 -5 -4 22 0 28 2 40 4 28 2 -13 2 -35 0 -50z
m-284 -27 c7 4 8 3 4 -1 -17 -19 -35 -13 -29 9 5 18 7 18 10 3 2 -10 8 -14 15
-11z m-3 -70 c0 -26 -6 -18 -14 19 -5 22 -4 26 4 15 5 -8 10 -24 10 -34z m-23
-138 c-2 -18 -4 -4 -4 32 0 36 2 50 4 33 2 -18 2 -48 0 -65z m70 30 c-3 -7 -5
-2 -5 12 0 14 2 19 5 13 2 -7 2 -19 0 -25z m98 -343 c3 -33 10 -69 14 -80 16
-37 30 -99 35 -155 l5 -55 -12 65 c-15 75 -38 140 -48 140 -4 0 -9 -17 -11
-37 -2 -27 -7 -37 -18 -35 -11 2 -11 -1 3 -11 17 -14 24 -33 8 -23 -5 3 -7
-13 -5 -37 8 -98 10 -260 4 -237 -7 23 -8 22 -10 -10 -2 -32 -2 -33 -9 -10 -5
14 -15 39 -23 55 -19 36 -32 169 -20 209 4 15 4 54 0 85 -25 195 -28 235 -19
244 7 7 8 3 4 -12 -3 -12 -1 -21 6 -21 6 0 11 11 11 24 0 14 4 27 9 30 9 6 -1
-53 -13 -72 -3 -6 0 -63 9 -127 8 -64 15 -155 15 -202 0 -48 2 -84 5 -81 3 3
6 50 6 104 1 54 5 108 9 119 15 36 29 169 25 240 l-4 70 9 -60 c5 -33 11 -87
15 -120z m-485 46 c-13 -25 -13 -34 0 -26 6 3 10 2 10 -4 0 -5 -4 -13 -10 -16
-5 -3 -10 0 -10 7 0 9 -3 9 -10 -2 -13 -20 -13 -33 0 -25 6 4 7 -1 3 -11 -4
-11 -8 -13 -11 -6 -2 7 -8 9 -14 6 -5 -3 2 17 16 45 15 28 29 51 32 51 2 0 0
-9 -6 -19z m247 -52 l-13 -33 0 37 c0 22 3 32 8 24 5 -8 8 -6 9 8 0 11 3 15 5
9 3 -7 -1 -27 -9 -45z m292 -139 c0 -35 -29 80 -34 135 -4 55 -3 52 14 -30 11
-49 20 -97 20 -105z m-492 112 c-7 -24 -16 -40 -19 -37 -4 4 -13 -8 -22 -27
-9 -18 -43 -61 -76 -95 -58 -62 -97 -120 -86 -130 3 -3 13 0 21 7 14 12 14 8
-1 -23 -10 -20 -24 -37 -31 -37 -7 0 -13 -4 -13 -10 0 -5 -5 -10 -11 -10 -6 0
-1 13 10 29 12 16 18 36 15 45 -6 17 40 126 59 138 7 5 8 8 1 8 -6 0 -18 -8
-27 -17 -8 -10 -27 -30 -40 -45 -14 -15 -23 -28 -22 -30 2 -2 -18 -27 -45 -57
-42 -47 -51 -53 -65 -41 -13 11 -15 10 -10 -3 4 -8 2 -18 -4 -22 -26 -15 -1
33 37 74 22 25 39 48 37 51 -2 4 9 20 25 35 16 15 41 52 56 81 15 30 31 54 35
54 4 0 11 9 14 20 4 11 18 33 32 48 l25 27 -7 -30 c-4 -17 -18 -47 -31 -67
-29 -45 -28 -43 -6 -45 11 -1 26 13 40 37 17 29 26 37 42 33 14 -4 20 0 20 11
0 9 3 16 8 16 4 0 16 13 27 29 11 17 20 29 22 28 1 -2 -4 -22 -10 -45z m63
-67 c0 -2 -6 -5 -13 -8 -8 -3 -14 1 -14 8 0 7 6 11 14 8 7 -3 13 -6 13 -8z
m217 -236 c2 -18 -1 -28 -7 -24 -6 3 -10 20 -10 37 0 39 12 29 17 -13z m-627
-63 c0 -2 -8 -10 -17 -17 -16 -13 -17 -12 -4 4 13 16 21 21 21 13z m705 -93
c0 -32 -5 -58 -10 -58 -10 0 -17 103 -9 117 12 20 20 -5 19 -59z m-589 -31
c-22 -22 -26 -23 -20 -7 8 21 36 46 43 39 3 -3 -7 -17 -23 -32z m549 -90 c-11
-44 -25 -10 -24 56 l1 67 14 -50 c8 -27 12 -60 9 -73z m102 36 c-3 -7 -5 -2
-5 12 0 14 2 19 5 13 2 -7 2 -19 0 -25z m-687 -4 c0 -8 -5 -12 -10 -9 -6 4 -8
11 -5 16 9 14 15 11 15 -7z m810 -304 c13 -9 13 -10 0 -10 -8 0 -22 5 -30 10
-13 9 -13 10 0 10 8 0 22 -5 30 -10z"/>
<path d="M4234 1481 c0 -15 3 -17 13 -9 7 6 10 14 7 19 -9 15 -20 10 -20 -10z"/>
<path d="M4661 1134 c0 -11 3 -14 6 -6 3 7 2 16 -1 19 -3 4 -6 -2 -5 -13z"/>
<path d="M4750 2635 c0 -8 9 -15 19 -15 11 0 25 -2 33 -3 7 -2 10 -2 5 0 -4 3
-4 10 -1 15 4 6 2 8 -4 4 -6 -3 -13 -2 -17 4 -10 15 -35 12 -35 -5z"/>
<path d="M5334 2636 c-7 -7 -19 -28 -29 -46 -20 -39 -2 -38 28 2 21 28 21 66
1 44z"/>
<path d="M4308 2595 c-26 -19 -56 -35 -65 -35 -15 0 -16 2 -3 10 8 5 12 10 7
10 -4 0 -16 -5 -26 -12 -17 -11 -18 -13 -4 -23 19 -14 67 6 127 54 53 42 22
39 -36 -4z"/>
<path d="M4140 2610 c-8 -5 -10 -10 -5 -10 6 0 17 5 25 10 8 5 11 10 5 10 -5
0 -17 -5 -25 -10z"/>
<path d="M5178 2612 c-16 -2 -28 -7 -28 -12 0 -4 -7 -11 -16 -14 -8 -3 -12 -2
-9 4 9 15 -31 12 -44 -4 -18 -21 -4 -44 24 -38 14 2 22 8 19 13 -7 12 3 11 27
-2 23 -12 61 7 79 40 11 21 13 20 -52 13z"/>
<path d="M3895 2590 c3 -5 8 -10 11 -10 2 0 4 5 4 10 0 6 -5 10 -11 10 -5 0
-7 -4 -4 -10z"/>
<path d="M4081 2571 c-8 -5 -21 -7 -29 -3 -10 3 -13 1 -8 -6 3 -6 -2 -17 -11
-24 -19 -13 -30 -48 -16 -48 12 0 70 37 92 59 16 16 17 20 4 25 -18 7 -15 8
-32 -3z"/>
<path d="M3999 2542 c-39 -26 -63 -52 -48 -52 7 0 4 -6 -6 -14 -11 -8 -23 -12
-27 -10 -5 3 -8 0 -8 -6 0 -33 94 30 95 63 0 4 7 12 15 17 8 5 12 11 9 14 -3
3 -16 -3 -30 -12z"/>
<path d="M5150 2540 c-35 -7 -35 -7 -5 -9 17 0 37 4 45 9 17 11 11 11 -40 0z"/>
<path d="M4184 2524 c-18 -14 -18 -15 4 -4 12 6 22 13 22 15 0 8 -5 6 -26 -11z"/>
<path d="M5130 2505 c0 -7 -3 -27 -7 -45 -4 -24 -3 -31 5 -26 7 4 12 2 12 -6
0 -24 37 26 43 58 5 29 4 31 -24 31 -16 0 -29 -6 -29 -12z"/>
<path d="M5092 2475 c-24 -30 -28 -45 -12 -45 6 0 10 -10 11 -22 0 -22 1 -22
8 -3 5 11 6 26 3 33 -2 7 1 19 8 27 6 8 10 20 8 26 -2 7 -13 1 -26 -16z"/>
<path d="M3620 2435 c-8 -9 -8 -15 -2 -15 12 0 26 19 19 26 -2 2 -10 -2 -17
-11z"/>
<path d="M3757 2417 c-26 -26 -13 -33 17 -9 17 13 22 21 13 24 -6 3 -20 -4
-30 -15z"/>
<path d="M3830 2430 c-9 -6 -10 -10 -3 -10 6 0 15 5 18 10 8 12 4 12 -15 0z"/>
<path d="M3850 2406 c-24 -9 -35 -19 -36 -34 -1 -18 1 -19 19 -9 25 15 71 57
60 56 -4 0 -24 -6 -43 -13z"/>
<path d="M2307 2359 c-20 -12 -23 -29 -3 -29 17 0 40 26 29 33 -5 3 -16 1 -26
-4z"/>
<path d="M5071 2354 c0 -11 3 -14 6 -6 3 7 2 16 -1 19 -3 4 -6 -2 -5 -13z"/>
<path d="M4315 2341 c-36 -22 -63 -59 -67 -95 -2 -14 -15 -37 -28 -52 l-25
-27 31 16 c17 9 45 32 62 51 16 19 33 32 36 29 3 -4 6 -4 6 -2 0 2 7 25 15 52
8 26 11 47 7 47 -4 0 -21 -8 -37 -19z"/>
<path d="M3775 2340 c-3 -5 1 -10 9 -10 9 0 16 5 16 10 0 6 -4 10 -9 10 -6 0
-13 -4 -16 -10z"/>
<path d="M4177 2330 c-8 -11 -17 -17 -21 -12 -4 4 -6 2 -4 -4 2 -6 -10 -26
-25 -44 -64 -71 7 -35 76 39 37 40 37 41 13 41 -14 0 -31 -9 -39 -20z"/>
<path d="M2816 2304 c-3 -9 -6 -23 -6 -32 1 -12 5 -10 15 8 8 14 14 28 15 33
0 13 -18 7 -24 -9z"/>
<path d="M3933 2280 c-13 -5 -23 -12 -23 -15 0 -9 16 -5 36 10 22 16 19 18
-13 5z"/>
<path d="M5022 2265 c0 -16 2 -22 5 -12 2 9 2 23 0 30 -3 6 -5 -1 -5 -18z"/>
<path d="M2152 2228 c-16 -16 -15 -27 1 -24 18 3 37 16 37 27 0 13 -24 11 -38
-3z"/>
<path d="M2196 2195 c-3 -8 -1 -15 4 -15 13 0 22 18 11 24 -5 3 -11 -1 -15 -9z"/>
<path d="M2617 2177 c-11 -29 -9 -53 4 -40 6 6 9 21 7 34 -3 21 -4 22 -11 6z"/>
<path d="M4088 2138 c-26 -32 -30 -46 -9 -33 11 6 45 65 38 65 -2 0 -15 -15
-29 -32z"/>
<path d="M4391 2114 c0 -11 3 -14 6 -6 3 7 2 16 -1 19 -3 4 -6 -2 -5 -13z"/>
<path d="M5390 2073 c-25 -14 -56 -36 -71 -49 -14 -13 -29 -24 -35 -24 -13 -1
-69 -53 -89 -84 -10 -14 -15 -32 -12 -39 3 -8 -1 -14 -8 -14 -7 0 -11 7 -7 15
3 9 0 13 -8 10 -23 -7 -42 -78 -30 -111 5 -16 7 -40 4 -53 -6 -24 -6 -24 -33
9 -23 29 -70 79 -64 68 2 -2 -2 -10 -8 -17 -8 -10 -5 -31 10 -78 12 -36 21
-72 21 -79 0 -8 9 -34 20 -59 10 -24 22 -64 25 -88 l6 -45 -19 45 c-11 25 -30
79 -42 120 -12 41 -26 84 -30 95 -14 34 -11 -5 5 -65 18 -67 19 -83 3 -74 -7
4 -8 3 -4 -5 4 -6 11 -9 16 -6 10 6 26 -41 21 -64 -1 -8 2 -10 10 -5 8 5 10 3
4 -6 -13 -21 -53 36 -72 103 -20 72 -34 58 -28 -28 l4 -60 -14 60 -13 60 4
-95 c5 -95 17 -175 37 -240 6 -19 10 -41 8 -49 -1 -7 2 -10 8 -7 5 3 18 -5 29
-19 20 -26 39 -35 26 -12 -5 7 0 6 11 -3 17 -14 18 -13 12 40 -3 30 -8 64 -11
75 -4 11 1 7 9 -10 l16 -30 -6 28 c-4 19 -2 26 5 22 5 -3 10 -14 10 -24 0 -10
3 -20 6 -23 9 -9 44 30 45 50 0 14 2 13 11 -4 6 -12 23 -25 40 -28 24 -5 29
-10 25 -26 -6 -24 5 -26 23 -5 19 23 27 18 28 -17 1 -34 15 -48 49 -48 12 0
25 -5 28 -10 9 -14 48 -13 63 2 9 9 12 8 12 -5 0 -9 -5 -17 -12 -17 -6 0 -8
-3 -4 -7 4 -5 13 -1 19 7 20 25 67 46 75 33 11 -18 60 7 119 61 29 26 52 53
50 59 -1 7 5 12 13 12 8 0 18 9 21 20 3 12 12 19 22 17 10 -2 21 6 26 20 21
51 51 83 88 94 25 7 39 17 41 30 9 58 13 65 32 59 11 -4 20 -2 20 4 0 5 8 17
18 27 9 10 18 25 18 33 4 34 35 92 63 112 l28 21 -26 28 c-44 47 -111 68 -111
36 0 -25 -41 -14 -54 14 -6 14 -21 36 -33 50 -13 14 -23 28 -23 31 0 4 -11 10
-25 13 -37 9 -98 48 -86 55 9 6 -7 8 -111 14 -23 1 -38 7 -38 15 0 6 -11 12
-24 12 -14 0 -31 7 -40 15 -8 8 -21 15 -29 15 -8 0 -18 11 -21 25 -8 31 -11
31 -66 -2z m400 -193 c0 -5 -4 -10 -10 -10 -5 0 -10 5 -10 10 0 6 5 10 10 10
6 0 10 -4 10 -10z m-731 -180 c0 -9 -4 -8 -9 5 -5 11 -9 27 -9 35 0 9 4 8 9
-5 5 -11 9 -27 9 -35z m896 -90 c3 -5 1 -10 -4 -10 -6 0 -11 5 -11 10 0 6 2
10 4 10 3 0 8 -4 11 -10z m-827 -255 l1 -20 -9 20 c-5 11 -8 31 -8 45 l0 25 8
-25 c4 -14 8 -34 8 -45z m20 -60 c-3 -3 -9 2 -12 12 -6 14 -5 15 5 6 7 -7 10
-15 7 -18z"/>
<path d="M3001 2064 c-17 -38 -6 -42 14 -5 8 17 12 31 7 31 -5 0 -14 -12 -21
-26z"/>
<path d="M4040 2080 c0 -5 5 -10 10 -10 6 0 10 5 10 10 0 6 -4 10 -10 10 -5 0
-10 -4 -10 -10z"/>
<path d="M4941 2005 c-1 -55 2 -75 9 -65 12 18 12 98 0 125 -6 13 -9 -6 -9
-60z"/>
<path d="M1760 1949 c0 -5 5 -7 10 -4 6 3 10 8 10 11 0 2 -4 4 -10 4 -5 0 -10
-5 -10 -11z"/>
<path d="M4912 1930 c0 -14 2 -19 5 -12 2 6 2 18 0 25 -3 6 -5 1 -5 -13z"/>
<path d="M4225 1880 c-3 -5 -1 -10 4 -10 6 0 11 5 11 10 0 6 -2 10 -4 10 -3 0
-8 -4 -11 -10z"/>
<path d="M4185 1860 c-3 -5 -1 -10 4 -10 6 0 11 5 11 10 0 6 -2 10 -4 10 -3 0
-8 -4 -11 -10z"/>
<path d="M4271 1798 c-42 -44 -49 -58 -31 -58 42 0 105 69 83 91 -7 7 -23 -3
-52 -33z"/>
<path d="M1801 1730 l1 -45 11 33 c7 24 7 36 -1 44 -9 9 -12 1 -11 -32z"/>
<path d="M4862 1730 c0 -14 2 -19 5 -12 2 6 2 18 0 25 -3 6 -5 1 -5 -13z"/>
<path d="M4129 1717 c-8 -7 -18 -20 -22 -30 -6 -16 -5 -16 18 -1 14 9 25 23
25 30 0 17 -1 17 -21 1z"/>
<path d="M3985 1650 c-3 -6 1 -7 9 -4 18 7 21 14 7 14 -6 0 -13 -4 -16 -10z"/>
<path d="M4860 1641 c0 -6 4 -13 10 -16 6 -3 7 1 4 9 -7 18 -14 21 -14 7z"/>
<path d="M5000 1645 c0 -5 5 -17 10 -25 5 -8 10 -10 10 -5 0 6 -5 17 -10 25
-5 8 -10 11 -10 5z"/>
<path d="M2360 1611 c0 -5 5 -13 10 -16 6 -3 10 -2 10 4 0 5 -4 13 -10 16 -5
3 -10 2 -10 -4z"/>
<path d="M1715 1587 c-4 -14 -15 -33 -26 -43 -20 -18 -26 -44 -10 -44 5 0 12
11 15 25 4 14 10 23 15 21 5 -3 11 8 15 26 7 38 0 51 -9 15z"/>
<path d="M4862 1590 c0 -14 2 -19 5 -12 2 6 2 18 0 25 -3 6 -5 1 -5 -13z"/>
<path d="M2340 1547 c0 -7 9 -27 21 -46 16 -26 23 -31 29 -20 6 8 4 19 -6 30
-7 8 -14 20 -14 26 0 6 -7 13 -15 17 -8 3 -15 0 -15 -7z"/>
<path d="M4921 1494 c0 -11 3 -14 6 -6 3 7 2 16 -1 19 -3 4 -6 -2 -5 -13z"/>
<path d="M2410 1492 c0 -9 38 -52 46 -52 2 0 -2 14 -11 30 -14 28 -35 41 -35
22z"/>
<path d="M4902 1380 c0 -14 2 -19 5 -12 2 6 2 18 0 25 -3 6 -5 1 -5 -13z"/>
<path d="M3742 1367 c-12 -13 -22 -31 -22 -40 0 -9 -6 -17 -12 -18 -7 0 -2 -5
11 -10 32 -12 50 5 58 54 7 43 -4 47 -35 14z"/>
<path d="M3834 1358 c3 -10 1 -18 -4 -18 -13 0 -43 -60 -35 -68 24 -24 92 8
108 50 10 27 -19 29 -32 2 -12 -27 -35 -23 -27 4 3 10 1 24 -5 32 -9 13 -10
12 -5 -2z"/>
<path d="M4911 1334 c0 -11 3 -14 6 -6 3 7 2 16 -1 19 -3 4 -6 -2 -5 -13z"/>
<path d="M4941 1294 c0 -11 3 -14 6 -6 3 7 2 16 -1 19 -3 4 -6 -2 -5 -13z"/>
<path d="M4972 1270 c-1 -14 3 -43 7 -65 6 -26 9 -31 9 -15 1 14 -3 43 -7 65
-6 26 -9 31 -9 15z"/>
<path d="M1691 1224 c0 -11 3 -14 6 -6 3 7 2 16 -1 19 -3 4 -6 -2 -5 -13z"/>
<path d="M4865 1060 c3 -19 10 -39 15 -44 7 -7 7 -1 1 19 -17 54 -21 61 -16
25z"/>
<path d="M1676 1053 c-6 -14 -5 -15 5 -6 7 7 10 15 7 18 -3 3 -9 -2 -12 -12z"/>
<path d="M1690 1010 c0 -11 6 -20 14 -20 9 0 12 7 9 20 -3 11 -9 20 -14 20 -5
0 -9 -9 -9 -20z"/>
<path d="M5320 950 c0 -25 -5 -40 -12 -41 -7 0 -24 -2 -38 -3 -14 -1 -52 -3
-84 -4 -69 -2 -67 -17 2 -18 123 -3 132 -4 132 -19 0 -8 5 -15 10 -15 6 0 10
6 10 14 0 7 9 16 21 19 25 7 16 27 -13 27 -17 0 -20 5 -16 40 2 22 0 40 -4 40
-5 0 -8 -18 -8 -40z"/>
<path d="M5572 910 c1 -22 6 -40 10 -40 4 0 8 18 8 40 0 22 -5 40 -10 40 -6 0
-10 -17 -8 -40z"/>
<path d="M5746 913 c-33 -20 -54 -39 -47 -41 7 -2 16 0 20 5 3 5 25 20 49 33
23 13 42 27 42 32 0 11 2 12 -64 -29z"/>
<path d="M5466 925 c4 -8 -1 -17 -10 -21 -14 -5 -14 -7 0 -22 10 -10 18 -12
22 -5 4 6 16 13 27 16 17 4 17 5 -4 6 -18 1 -22 5 -18 21 3 13 0 20 -9 20 -8
0 -11 -6 -8 -15z"/>
<path d="M5856 914 c-19 -19 -20 -26 -4 -42 17 -17 33 -15 18 3 -15 18 -5 36
16 28 9 -3 13 -12 9 -21 -5 -12 -3 -13 10 -2 14 12 14 15 -4 31 -24 23 -26 23
-45 3z"/>
<path d="M5990 915 c-7 -8 -18 -15 -24 -15 -6 0 -17 -9 -24 -20 -7 -12 -8 -20
-2 -20 5 0 10 5 10 10 0 15 21 12 42 -7 10 -9 18 -11 18 -6 0 6 -7 16 -15 23
-14 12 -14 15 1 31 10 11 15 19 12 19 -3 0 -11 -7 -18 -15z"/>
<path d="M5748 863 c12 -2 30 -2 40 0 9 3 -1 5 -23 4 -22 0 -30 -2 -17 -4z"/>
<path d="M1490 823 c-25 -4 -61 -43 -40 -43 6 0 13 7 17 16 3 8 11 13 19 10 7
-3 18 2 24 10 7 8 11 13 9 13 -2 -1 -15 -4 -29 -6z"/>
<path d="M1263 768 c-22 -19 -38 -39 -35 -46 2 -6 -1 -12 -7 -12 -6 0 -15 -9
-21 -20 -10 -18 -9 -19 15 -8 14 6 25 17 25 25 0 7 10 18 23 23 12 5 18 9 13
9 -5 1 1 12 14 26 36 38 18 40 -27 3z"/>
<path d="M4835 630 c3 -5 10 -10 16 -10 5 0 9 5 9 10 0 6 -7 10 -16 10 -8 0
-12 -4 -9 -10z"/>
<path d="M5024 608 c-3 -4 -14 -8 -25 -8 -10 0 -19 -5 -19 -11 0 -7 7 -8 18
-4 51 19 71 17 97 -11 24 -26 25 -28 8 -38 -41 -22 -45 -33 -31 -73 7 -21 21
-46 31 -55 9 -10 17 -23 17 -29 0 -6 9 -8 23 -3 12 4 32 7 44 6 14 -1 24 6 28
19 5 15 9 18 15 9 5 -9 9 -9 14 -1 12 18 -5 33 -30 28 -24 -4 -28 2 -25 34 1
9 -5 22 -14 29 -8 7 -15 23 -15 36 0 16 -6 24 -17 24 -10 0 -27 14 -38 30 -15
23 -27 29 -48 28 -16 -1 -31 -6 -33 -10z m126 -120 c21 -34 28 -94 10 -83 -6
4 -8 10 -5 14 2 5 -2 17 -10 27 -14 18 -14 18 -15 -4 0 -20 -3 -21 -20 -12
-14 7 -20 21 -20 44 0 57 30 64 60 14z"/>
<path d="M4908 593 c6 -2 18 -2 25 0 6 3 1 5 -13 5 -14 0 -19 -2 -12 -5z"/>
<path d="M4920 544 c0 -16 9 -18 28 -5 10 6 9 10 -7 14 -14 3 -21 0 -21 -9z"/>
<path d="M4798 538 c9 -9 15 -9 24 0 9 9 7 12 -12 12 -19 0 -21 -3 -12 -12z"/>
<path d="M5215 489 c-12 -19 5 -23 22 -6 16 16 16 17 1 17 -9 0 -20 -5 -23
-11z"/>
<path d="M860 339 c0 -5 5 -7 10 -4 6 3 10 8 10 11 0 2 -4 4 -10 4 -5 0 -10
-5 -10 -11z"/>
</g>
</svg>
